<?xml version="1.0" encoding="UTF-8"?>
<svg id="Capa_1" xmlns="http://www.w3.org/2000/svg" version="1.1" xmlns:xlink="http://www.w3.org/1999/xlink" viewBox="0 0 1080 1080">
  <!-- Generator: Adobe Illustrator 29.4.0, SVG Export Plug-In . SVG Version: 2.1.0 Build 152)  -->
  <defs>
    <style>
      .st0 {
        fill: url(#Degradado_sin_nombre_264);
      }

      .st1 {
        fill: url(#Degradado_sin_nombre_2619);
      }

      .st2 {
        fill: url(#Degradado_sin_nombre_2641);
        filter: url(#drop-shadow-16);
      }

      .st3 {
        fill: url(#Degradado_sin_nombre_2615);
      }

      .st4 {
        fill: url(#Degradado_sin_nombre_262);
      }

      .st5 {
        fill: url(#Degradado_sin_nombre_2623);
      }

      .st6 {
        filter: url(#drop-shadow-12);
      }

      .st6, .st7, .st8, .st9, .st10, .st11 {
        fill: #fff;
      }

      .st12 {
        fill: url(#Degradado_sin_nombre_2634);
      }

      .st13 {
        fill: url(#Degradado_sin_nombre_2628);
      }

      .st14 {
        fill: url(#Degradado_sin_nombre_266);
      }

      .st15 {
        fill: url(#Degradado_sin_nombre_26);
      }

      .st16 {
        fill: url(#Degradado_sin_nombre_2621);
        filter: url(#drop-shadow-13);
      }

      .st17 {
        fill: url(#Degradado_sin_nombre_2620);
        filter: url(#drop-shadow-8);
      }

      .st18 {
        fill: url(#Degradado_sin_nombre_2629);
      }

      .st19 {
        fill: url(#Degradado_sin_nombre_2610);
      }

      .st20 {
        fill: url(#Degradado_sin_nombre_2617);
      }

      .st8 {
        filter: url(#drop-shadow-4);
      }

      .st21 {
        fill: url(#Degradado_sin_nombre_263);
      }

      .st22 {
        filter: url(#drop-shadow-7);
      }

      .st23 {
        fill: url(#Degradado_sin_nombre_2611);
      }

      .st24 {
        fill: url(#Degradado_sin_nombre_2627);
      }

      .st25 {
        fill: url(#Degradado_sin_nombre_2631);
      }

      .st26 {
        fill: url(#Degradado_sin_nombre_2637);
      }

      .st27 {
        fill: url(#Degradado_sin_nombre_2630);
      }

      .st28 {
        fill: url(#Degradado_sin_nombre_2622);
        filter: url(#drop-shadow-14);
      }

      .st29 {
        fill: url(#Degradado_sin_nombre_8);
        filter: url(#drop-shadow-1);
      }

      .st30 {
        fill: url(#Degradado_sin_nombre_2638);
      }

      .st31 {
        filter: url(#drop-shadow-11);
      }

      .st9 {
        filter: url(#drop-shadow-10);
      }

      .st32 {
        fill: url(#Degradado_sin_nombre_2612);
      }

      .st33 {
        fill: url(#Degradado_sin_nombre_265);
      }

      .st34 {
        fill: url(#Degradado_sin_nombre_2625);
      }

      .st35 {
        fill: url(#Degradado_sin_nombre_2635);
      }

      .st36 {
        fill: url(#Degradado_sin_nombre_2613);
      }

      .st37 {
        fill: url(#Degradado_sin_nombre_2640);
      }

      .st38 {
        fill: url(#Degradado_sin_nombre_2626);
      }

      .st39 {
        fill: url(#Degradado_sin_nombre_268);
      }

      .st40 {
        fill: url(#Degradado_sin_nombre_2636);
      }

      .st41 {
        fill: url(#Degradado_sin_nombre_261);
        filter: url(#drop-shadow-6);
      }

      .st10 {
        filter: url(#drop-shadow-2);
      }

      .st42 {
        fill: url(#Degradado_sin_nombre_2614);
      }

      .st43 {
        fill: url(#Degradado_sin_nombre_2639);
      }

      .st11 {
        filter: url(#drop-shadow-9);
      }

      .st44 {
        filter: url(#drop-shadow-3);
      }

      .st45 {
        fill: url(#Degradado_sin_nombre_81);
        filter: url(#drop-shadow-5);
      }

      .st46 {
        fill: url(#Degradado_sin_nombre_269);
      }

      .st47 {
        fill: url(#Degradado_sin_nombre_2616);
      }

      .st48 {
        fill: url(#Degradado_sin_nombre_2632);
      }

      .st49 {
        fill: url(#Degradado_sin_nombre_2624);
      }

      .st50 {
        fill: url(#Degradado_sin_nombre_2633);
      }

      .st51 {
        fill: url(#Degradado_sin_nombre_267);
      }

      .st52 {
        fill: url(#Degradado_sin_nombre_2618);
      }

      .st53 {
        filter: url(#drop-shadow-15);
      }
    </style>
    <radialGradient id="Degradado_sin_nombre_26" data-name="Degradado sin nombre 26" cx="540" cy="540" fx="540" fy="540" r="540" gradientUnits="userSpaceOnUse">
      <stop offset="0" stop-color="#ac2328"/>
      <stop offset=".34" stop-color="#8b1c20"/>
      <stop offset=".77" stop-color="#671418"/>
      <stop offset="1" stop-color="#5a1215"/>
    </radialGradient>
    <linearGradient id="Degradado_sin_nombre_8" data-name="Degradado sin nombre 8" x1="540" y1="668.7" x2="540" y2="215.43" gradientUnits="userSpaceOnUse">
      <stop offset="0" stop-color="#ee8304"/>
      <stop offset=".52" stop-color="#f2b90e"/>
      <stop offset="1" stop-color="#fef27e"/>
    </linearGradient>
    <filter id="drop-shadow-1" x="175" y="185" width="730" height="520" filterUnits="userSpaceOnUse">
      <feOffset dx="0" dy="0"/>
      <feGaussianBlur result="blur" stdDeviation="11"/>
      <feFlood flood-color="#000" flood-opacity=".4"/>
      <feComposite in2="blur" operator="in"/>
      <feComposite in="SourceGraphic"/>
    </filter>
    <filter id="drop-shadow-2" x="206" y="139" width="669" height="506" filterUnits="userSpaceOnUse">
      <feOffset dx="0" dy="0"/>
      <feGaussianBlur result="blur1" stdDeviation="11"/>
      <feFlood flood-color="#000" flood-opacity=".4"/>
      <feComposite in2="blur1" operator="in"/>
      <feComposite in="SourceGraphic"/>
    </filter>
    <filter id="drop-shadow-3" x="187" y="646" width="706" height="225" filterUnits="userSpaceOnUse">
      <feOffset dx="0" dy="0"/>
      <feGaussianBlur result="blur2" stdDeviation="11"/>
      <feFlood flood-color="#000" flood-opacity=".4"/>
      <feComposite in2="blur2" operator="in"/>
      <feComposite in="SourceGraphic"/>
    </filter>
    <filter id="drop-shadow-4" x="405" y="811" width="272" height="130" filterUnits="userSpaceOnUse">
      <feOffset dx="0" dy="0"/>
      <feGaussianBlur result="blur3" stdDeviation="11"/>
      <feFlood flood-color="#000" flood-opacity=".4"/>
      <feComposite in2="blur3" operator="in"/>
      <feComposite in="SourceGraphic"/>
    </filter>
    <linearGradient id="Degradado_sin_nombre_81" data-name="Degradado sin nombre 8" x1="1640" y1="671.4" x2="1640" y2="218.12" xlink:href="#Degradado_sin_nombre_8"/>
    <filter id="drop-shadow-5" x="1275" y="185" width="730" height="520" filterUnits="userSpaceOnUse">
      <feOffset dx="0" dy="0"/>
      <feGaussianBlur result="blur4" stdDeviation="11"/>
      <feFlood flood-color="#000" flood-opacity=".4"/>
      <feComposite in2="blur4" operator="in"/>
      <feComposite in="SourceGraphic"/>
    </filter>
    <radialGradient id="Degradado_sin_nombre_261" data-name="Degradado sin nombre 26" cx="1640.59" cy="391.97" fx="1640.59" fy="391.97" r="263.66" xlink:href="#Degradado_sin_nombre_26"/>
    <filter id="drop-shadow-6" x="1306" y="139" width="669" height="506" filterUnits="userSpaceOnUse">
      <feOffset dx="0" dy="0"/>
      <feGaussianBlur result="blur5" stdDeviation="11"/>
      <feFlood flood-color="#000" flood-opacity=".4"/>
      <feComposite in2="blur5" operator="in"/>
      <feComposite in="SourceGraphic"/>
    </filter>
    <filter id="drop-shadow-7" x="1287" y="646" width="706" height="225" filterUnits="userSpaceOnUse">
      <feOffset dx="0" dy="0"/>
      <feGaussianBlur result="blur6" stdDeviation="11"/>
      <feFlood flood-color="#000" flood-opacity=".4"/>
      <feComposite in2="blur6" operator="in"/>
      <feComposite in="SourceGraphic"/>
    </filter>
    <radialGradient id="Degradado_sin_nombre_262" data-name="Degradado sin nombre 26" cx="1457.24" cy="724.88" fx="1457.24" fy="724.88" r="24.11" xlink:href="#Degradado_sin_nombre_26"/>
    <radialGradient id="Degradado_sin_nombre_263" data-name="Degradado sin nombre 26" cx="1523.28" cy="725.14" fx="1523.28" fy="725.14" r="30.35" xlink:href="#Degradado_sin_nombre_26"/>
    <radialGradient id="Degradado_sin_nombre_264" data-name="Degradado sin nombre 26" cx="1598.16" cy="724.88" fx="1598.16" fy="724.88" r="29.34" xlink:href="#Degradado_sin_nombre_26"/>
    <radialGradient id="Degradado_sin_nombre_265" data-name="Degradado sin nombre 26" cx="1661.18" cy="724.82" fx="1661.18" fy="724.82" r="23.9" xlink:href="#Degradado_sin_nombre_26"/>
    <radialGradient id="Degradado_sin_nombre_266" data-name="Degradado sin nombre 26" cx="1703.17" cy="724.6" fx="1703.17" fy="724.6" r="20.17" xlink:href="#Degradado_sin_nombre_26"/>
    <radialGradient id="Degradado_sin_nombre_267" data-name="Degradado sin nombre 26" cx="1746.53" cy="724.88" fx="1746.53" fy="724.88" r="23.49" xlink:href="#Degradado_sin_nombre_26"/>
    <radialGradient id="Degradado_sin_nombre_268" data-name="Degradado sin nombre 26" cx="1812.27" cy="724.92" fx="1812.27" fy="724.92" r="30.11" xlink:href="#Degradado_sin_nombre_26"/>
    <radialGradient id="Degradado_sin_nombre_269" data-name="Degradado sin nombre 26" cx="1430.23" cy="791.97" fx="1430.23" fy="791.97" r="29.19" xlink:href="#Degradado_sin_nombre_26"/>
    <radialGradient id="Degradado_sin_nombre_2610" data-name="Degradado sin nombre 26" cx="1497.91" cy="792.45" fx="1497.91" fy="792.45" r="27.38" xlink:href="#Degradado_sin_nombre_26"/>
    <radialGradient id="Degradado_sin_nombre_2611" data-name="Degradado sin nombre 26" cx="1566.39" cy="791.97" fx="1566.39" fy="791.97" r="29.19" xlink:href="#Degradado_sin_nombre_26"/>
    <radialGradient id="Degradado_sin_nombre_2612" data-name="Degradado sin nombre 26" cx="1636.68" cy="792.59" fx="1636.68" fy="792.59" r="28.61" xlink:href="#Degradado_sin_nombre_26"/>
    <radialGradient id="Degradado_sin_nombre_2613" data-name="Degradado sin nombre 26" cx="1701.6" cy="792.46" fx="1701.6" fy="792.46" r="24.11" xlink:href="#Degradado_sin_nombre_26"/>
    <radialGradient id="Degradado_sin_nombre_2614" data-name="Degradado sin nombre 26" cx="1771.86" cy="792.77" fx="1771.86" fy="792.77" r="33.26" xlink:href="#Degradado_sin_nombre_26"/>
    <radialGradient id="Degradado_sin_nombre_2615" data-name="Degradado sin nombre 26" cx="1850.32" cy="792.21" fx="1850.32" fy="792.21" r="29.42" xlink:href="#Degradado_sin_nombre_26"/>
    <radialGradient id="Degradado_sin_nombre_2616" data-name="Degradado sin nombre 26" cx="1640" cy="835.88" fx="1640" fy="835.88" r="172.15" xlink:href="#Degradado_sin_nombre_26"/>
    <radialGradient id="Degradado_sin_nombre_2617" data-name="Degradado sin nombre 26" cx="1640" cy="835.88" fx="1640" fy="835.88" r="172.16" xlink:href="#Degradado_sin_nombre_26"/>
    <radialGradient id="Degradado_sin_nombre_2618" data-name="Degradado sin nombre 26" cx="1640" cy="681.65" fx="1640" fy="681.65" r="225.88" xlink:href="#Degradado_sin_nombre_26"/>
    <radialGradient id="Degradado_sin_nombre_2619" data-name="Degradado sin nombre 26" cx="1640" cy="681.65" fx="1640" fy="681.65" r="225.88" xlink:href="#Degradado_sin_nombre_26"/>
    <radialGradient id="Degradado_sin_nombre_2620" data-name="Degradado sin nombre 26" cx="1640.78" cy="875.86" fx="1640.78" fy="875.86" r="75.71" xlink:href="#Degradado_sin_nombre_26"/>
    <filter id="drop-shadow-8" x="1505" y="811" width="272" height="130" filterUnits="userSpaceOnUse">
      <feOffset dx="0" dy="0"/>
      <feGaussianBlur result="blur7" stdDeviation="11"/>
      <feFlood flood-color="#000" flood-opacity=".4"/>
      <feComposite in2="blur7" operator="in"/>
      <feComposite in="SourceGraphic"/>
    </filter>
    <filter id="drop-shadow-9" x="2375" y="185" width="730" height="520" filterUnits="userSpaceOnUse">
      <feOffset dx="0" dy="0"/>
      <feGaussianBlur result="blur8" stdDeviation="11"/>
      <feFlood flood-color="#000" flood-opacity=".4"/>
      <feComposite in2="blur8" operator="in"/>
      <feComposite in="SourceGraphic"/>
    </filter>
    <filter id="drop-shadow-10" x="2406" y="139" width="669" height="506" filterUnits="userSpaceOnUse">
      <feOffset dx="0" dy="0"/>
      <feGaussianBlur result="blur9" stdDeviation="11"/>
      <feFlood flood-color="#000" flood-opacity=".4"/>
      <feComposite in2="blur9" operator="in"/>
      <feComposite in="SourceGraphic"/>
    </filter>
    <filter id="drop-shadow-11" x="2387" y="646" width="706" height="225" filterUnits="userSpaceOnUse">
      <feOffset dx="0" dy="0"/>
      <feGaussianBlur result="blur10" stdDeviation="11"/>
      <feFlood flood-color="#000" flood-opacity=".4"/>
      <feComposite in2="blur10" operator="in"/>
      <feComposite in="SourceGraphic"/>
    </filter>
    <filter id="drop-shadow-12" x="2605" y="811" width="272" height="130" filterUnits="userSpaceOnUse">
      <feOffset dx="0" dy="0"/>
      <feGaussianBlur result="blur11" stdDeviation="11"/>
      <feFlood flood-color="#000" flood-opacity=".4"/>
      <feComposite in2="blur11" operator="in"/>
      <feComposite in="SourceGraphic"/>
    </filter>
    <radialGradient id="Degradado_sin_nombre_2621" data-name="Degradado sin nombre 26" cy="1544.76" fy="1544.76" r="284.05" xlink:href="#Degradado_sin_nombre_26"/>
    <filter id="drop-shadow-13" x="175" y="1285" width="730" height="520" filterUnits="userSpaceOnUse">
      <feOffset dx="0" dy="0"/>
      <feGaussianBlur result="blur12" stdDeviation="11"/>
      <feFlood flood-color="#000" flood-opacity=".4"/>
      <feComposite in2="blur12" operator="in"/>
      <feComposite in="SourceGraphic"/>
    </filter>
    <radialGradient id="Degradado_sin_nombre_2622" data-name="Degradado sin nombre 26" cx="540.59" cy="1491.97" fx="540.59" fy="1491.97" r="263.66" xlink:href="#Degradado_sin_nombre_26"/>
    <filter id="drop-shadow-14" x="206" y="1239" width="669" height="506" filterUnits="userSpaceOnUse">
      <feOffset dx="0" dy="0"/>
      <feGaussianBlur result="blur13" stdDeviation="11"/>
      <feFlood flood-color="#000" flood-opacity=".4"/>
      <feComposite in2="blur13" operator="in"/>
      <feComposite in="SourceGraphic"/>
    </filter>
    <filter id="drop-shadow-15" x="187" y="1746" width="706" height="225" filterUnits="userSpaceOnUse">
      <feOffset dx="0" dy="0"/>
      <feGaussianBlur result="blur14" stdDeviation="11"/>
      <feFlood flood-color="#000" flood-opacity=".4"/>
      <feComposite in2="blur14" operator="in"/>
      <feComposite in="SourceGraphic"/>
    </filter>
    <radialGradient id="Degradado_sin_nombre_2623" data-name="Degradado sin nombre 26" cx="357.24" cy="1824.88" fx="357.24" fy="1824.88" r="24.11" xlink:href="#Degradado_sin_nombre_26"/>
    <radialGradient id="Degradado_sin_nombre_2624" data-name="Degradado sin nombre 26" cx="423.28" cy="1825.14" fx="423.28" fy="1825.14" r="30.35" xlink:href="#Degradado_sin_nombre_26"/>
    <radialGradient id="Degradado_sin_nombre_2625" data-name="Degradado sin nombre 26" cx="498.16" cy="1824.88" fx="498.16" fy="1824.88" r="29.34" xlink:href="#Degradado_sin_nombre_26"/>
    <radialGradient id="Degradado_sin_nombre_2626" data-name="Degradado sin nombre 26" cx="561.18" cy="1824.82" fx="561.18" fy="1824.82" r="23.9" xlink:href="#Degradado_sin_nombre_26"/>
    <radialGradient id="Degradado_sin_nombre_2627" data-name="Degradado sin nombre 26" cx="603.17" cy="1824.6" fx="603.17" fy="1824.6" r="20.17" xlink:href="#Degradado_sin_nombre_26"/>
    <radialGradient id="Degradado_sin_nombre_2628" data-name="Degradado sin nombre 26" cx="646.53" cy="1824.88" fx="646.53" fy="1824.88" r="23.49" xlink:href="#Degradado_sin_nombre_26"/>
    <radialGradient id="Degradado_sin_nombre_2629" data-name="Degradado sin nombre 26" cx="712.27" cy="1824.92" fx="712.27" fy="1824.92" r="30.11" xlink:href="#Degradado_sin_nombre_26"/>
    <radialGradient id="Degradado_sin_nombre_2630" data-name="Degradado sin nombre 26" cx="330.23" cy="1891.97" fx="330.23" fy="1891.97" r="29.19" xlink:href="#Degradado_sin_nombre_26"/>
    <radialGradient id="Degradado_sin_nombre_2631" data-name="Degradado sin nombre 26" cx="397.91" cy="1892.45" fx="397.91" fy="1892.45" r="27.38" xlink:href="#Degradado_sin_nombre_26"/>
    <radialGradient id="Degradado_sin_nombre_2632" data-name="Degradado sin nombre 26" cx="466.39" cy="1891.97" fx="466.39" fy="1891.97" r="29.19" xlink:href="#Degradado_sin_nombre_26"/>
    <radialGradient id="Degradado_sin_nombre_2633" data-name="Degradado sin nombre 26" cx="536.68" cy="1892.59" fx="536.68" fy="1892.59" r="28.61" xlink:href="#Degradado_sin_nombre_26"/>
    <radialGradient id="Degradado_sin_nombre_2634" data-name="Degradado sin nombre 26" cx="601.6" cy="1892.46" fx="601.6" fy="1892.46" r="24.11" xlink:href="#Degradado_sin_nombre_26"/>
    <radialGradient id="Degradado_sin_nombre_2635" data-name="Degradado sin nombre 26" cx="671.86" cy="1892.77" fx="671.86" fy="1892.77" r="33.26" xlink:href="#Degradado_sin_nombre_26"/>
    <radialGradient id="Degradado_sin_nombre_2636" data-name="Degradado sin nombre 26" cx="750.32" cy="1892.21" fx="750.32" fy="1892.21" r="29.42" xlink:href="#Degradado_sin_nombre_26"/>
    <radialGradient id="Degradado_sin_nombre_2637" data-name="Degradado sin nombre 26" cy="1935.88" fy="1935.88" r="172.15" xlink:href="#Degradado_sin_nombre_26"/>
    <radialGradient id="Degradado_sin_nombre_2638" data-name="Degradado sin nombre 26" cx="540" cy="1935.88" fx="540" fy="1935.88" r="172.16" xlink:href="#Degradado_sin_nombre_26"/>
    <radialGradient id="Degradado_sin_nombre_2639" data-name="Degradado sin nombre 26" cy="1781.65" fy="1781.65" r="225.88" xlink:href="#Degradado_sin_nombre_26"/>
    <radialGradient id="Degradado_sin_nombre_2640" data-name="Degradado sin nombre 26" cx="540" cy="1781.65" fx="540" fy="1781.65" r="225.88" xlink:href="#Degradado_sin_nombre_26"/>
    <radialGradient id="Degradado_sin_nombre_2641" data-name="Degradado sin nombre 26" cx="540.78" cy="1975.86" fx="540.78" fy="1975.86" r="75.71" xlink:href="#Degradado_sin_nombre_26"/>
    <filter id="drop-shadow-16" x="405" y="1911" width="272" height="130" filterUnits="userSpaceOnUse">
      <feOffset dx="0" dy="0"/>
      <feGaussianBlur result="blur15" stdDeviation="11"/>
      <feFlood flood-color="#000" flood-opacity=".4"/>
      <feComposite in2="blur15" operator="in"/>
      <feComposite in="SourceGraphic"/>
    </filter>
  </defs>
  <path class="st15" d="M1080,1080H0V0h1080v1080Z"/>
  <g>
    <path class="st29" d="M753.3,394.41c-28.98-.61-59.65-3.31-88.61-1.58-20.89,1.24-41.35,5-54.34,22.86-4.72,6.49-6.39,16.55-12.94,21.1l18.36-54.28,187.47.53-217.95,229.33c69.22,28.48,159.4,63.5,230.54,22.43,33.17-19.14,58.11-59.08,48.8-98.17-1.65-6.91-5.31-11.92-7.77-17.97-.9-2.21-.92-4.41,1.62-3.14,6.38,3.17,12.45,26.72,12.95,33.98,4.15,59.91-52.82,103.03-105.71,115.42-69.9,16.38-137.3-8.08-199.15-38.68-22.91,18.97-50.13,33.57-79.37,40.19-5.88,1.33-31.6,6.05-35.61,4.76-1.98-.64-2.95-2.23-2.53-4.3,32.41-1.93,61.57-18.55,85.48-39.4,2.11-1.84,12.59-10.42,11.39-12.05l-113.05-60.33c-19.53,17.12-39.45,33.66-62.51,45.96-31.85,17-77.81,31.28-113.93,24.55-55.98-10.43-64.74-67.63-17.67-97.12,54.09-33.9,133.09-11.72,188.18,9.52,22.01-25.55,40.43-53.86,58.41-82.33l-2.25-2.26c-52.49,20.01-112.63,35.5-166.78,12.4-56.82-24.23-75.64-86.54-43.5-139.41,43.34-71.31,161.6-79.07,223.14-28.1.63,3.03-1.31,2.71-3.45,1.93-5.63-2.03-15.3-10.17-22.76-13.57-48.69-22.23-107.96-20.4-152.86,9.63-56.33,37.67-74.21,119.42-9.06,158.36,55.32,33.07,128.93,12.37,184.33-10.33,43.28-71.39,93.23-170.94,168.78-212.67,67.99-37.55,79.38,9.62,44.89,61.54-30.82,46.38-90.33,92.53-138.25,120.6-9.48,5.56-35.46,16.55-41.4,22.17-10.07,9.53-28.14,42.8-38.68,56.68-13.59,17.91-28.54,35-44.47,50.87l117.94,56.13,192.33-205.22ZM532.31,426.18c26.48-12.88,52.4-28.29,76.16-45.67,34.36-25.13,106.08-91.1,108.57-135.13.94-16.71-2.47-22.76-20.37-20.37-29.23,3.89-69.31,54.2-85.98,77.49-28.18,39.36-52.23,82.91-78.38,123.69ZM417.27,547.3c-51.56-19.72-125.09-44.97-176.1-11.88-41.65,27.01-29.85,80.59,20.89,84.58,50.99,4.01,103.6-21.14,140.09-55.28,2.24-2.1,16.74-15.61,15.12-17.42Z"/>
    <path class="st10" d="M827.09,611.5c3.45-15.89,5.64-32.1,5.63-48.21l-1.38-48.84c-.76-32.55-1.64-65.1-2.18-97.63-1.28-61.15-2.26-134.01-2.91-195.17,0,0,5.71,7.54,5.71,7.54-16.6-4.38-37.09-9.4-53.83-13.1-8.23-1.83-18.81-3.82-27.14-5.53-116.29-22.27-236.25-26.03-353.78-11.83-50.5,5.99-100.27,16.79-149.54,29.43,0,0,4.96-6.45,4.96-6.45l-.54,36.19c-1.48,83.68-3.2,169.74-6.26,253.3-.89-24.12-1.61-48.25-2.26-72.37-1.31-46.4-2.34-98.27-3.15-144.75-.21-18.03-1.03-54.34-1.16-72.37,0,0-.07-5.03-.07-5.03l5.03-1.43c53.9-15.48,108.99-28.34,164.82-34.69,105.34-13.13,213.08-10.26,317.62,8.1,38.78,6.76,77.56,16.15,115.33,27.07-.22,27.23-.79,76.34-1.12,103.59-1.15,79.64-2.61,164.5-4.92,244.06-.87,16.3-4.27,32.49-8.86,48.12h0Z"/>
    <g class="st44">
      <g>
        <g>
          <path class="st7" d="M379.18,740.82c-.82,3.11-1.36,6.24-1.63,9.4-.03.5-.92.71-2.68.63-4.57-.21-10.41-.31-17.5-.31-7.8,0-14.51.13-20.14.39-1.26.05-1.89-.4-1.89-1.37,0-.68.63-1.07,1.89-1.17,1.76-.18,2.89-.48,3.39-.9.62-.52.92-1.62.92-3.29v-36.07c0-2.43-.25-3.96-.75-4.6-.5-.64-1.88-1.27-4.13-1.9-1.2-.34-1.64-.98-1.32-1.92.15-.5.38-.77.7-.82.29-.08,1.07-.03,2.33.16,1.88.26,6.77.39,14.69.39s14.67-.16,20.36-.47c1.9-.1,2.86.01,2.86.35,0,.13-.03.26-.09.39-.62,2.56-.88,5.5-.79,8.81.03.81-.4,1.21-1.27,1.21-.82,0-1.39-.35-1.71-1.06-.82-1.83-1.54-3.07-2.15-3.72-.94-.99-2.29-1.62-4.04-1.88-1.41-.24-6.36-.35-14.86-.35-.97,0-1.58.14-1.85.43-.15.16-.22.55-.22,1.18v16.37c0,.65.42.98,1.27.98,2.7-.05,6.57-.22,11.61-.51.88-.08,1.52-.46,1.93-1.14.32-.52.66-1.61,1.01-3.25.26-1.12.95-1.53,2.07-1.21,1,.16,1.42.56,1.27,1.21-.82,3.55-1.08,8.17-.79,13.87.03.63-.45,1.01-1.45,1.14-.88.1-1.39-.33-1.54-1.29-.29-2.01-.67-3.34-1.12-3.98-.45-.64-1.31-1.02-2.57-1.16-2.4-.26-6.04-.39-10.9-.39-.53,0-.79.18-.79.55v17.08c0,2.43,1.58,3.92,4.75,4.46.79.13,3.53.2,8.22.2,7.3,0,11.86-2.27,13.67-6.81.44-1.07,1.16-1.42,2.15-1.06.94.21,1.3.69,1.1,1.45Z"/>
          <path class="st7" d="M456.92,699.85c0,.65-.79,1.19-2.37,1.61-3.52.89-5.28,2.7-5.28,5.44v28.16c0,5.93.09,10.71.26,14.34.06,1.38-.31,2.17-1.1,2.35-1.32.29-2.43-.33-3.34-1.84-1.47-2.48-7.21-8.59-17.23-18.33-8.38-8.12-16.5-15.71-24.36-22.76-.26-.24-.53-.3-.79-.2-.29.13-.44.43-.44.9v32.12c0,3.45,1.95,5.5,5.85,6.15,1.61.29,2.42.8,2.42,1.53,0,.99-.91,1.45-2.73,1.37-6.98-.26-12.4-.26-16.27,0-1.26.08-1.89-.38-1.89-1.37,0-.55.63-.94,1.89-1.18,2.26-.47,3.77-1.11,4.53-1.92.76-.81,1.14-2.18,1.14-4.11v-34.66c0-1.51-.35-2.68-1.06-3.49-.67-.73-1.98-1.49-3.91-2.27-1.44-.6-2.13-1.21-2.07-1.84.09-.71.75-.98,1.98-.82,3.81.47,7.11.57,9.89.31,1.44-.13,2.73.35,3.87,1.45l36.84,34.98c.5.5.84.74,1.01.74.23,0,.35-.35.35-1.06v-28.32c0-3.32-1.95-5.27-5.85-5.88-1.38-.21-2.07-.57-2.07-1.1,0-1.1.63-1.58,1.89-1.45,4.81.47,10.17.42,16.09-.16,1.03-.1,1.69-.12,1.98-.04.5.13.75.57.75,1.33Z"/>
          <path class="st7" d="M529.77,727.27c0,.84-.69,1.35-2.07,1.53-1.93.26-3.06.44-3.39.55-1.06.39-1.58,1.15-1.58,2.27v12.26c0,1.54-2.26,3.19-6.77,4.94-5.07,1.96-10.77,2.94-17.1,2.94-9.2,0-16.87-2.44-22.99-7.32-6.21-4.96-9.32-11.32-9.32-19.07s3.21-14.49,9.63-19.74c6.21-5.07,13.69-7.6,22.42-7.6,6.71,0,12.41.72,17.1,2.15,3.46,1.04,5.26,2.09,5.41,3.13.29,1.98.44,4.92.44,8.81,0,.86-.6,1.32-1.8,1.37-1.41.05-2.27-.3-2.59-1.06-1.61-3.89-3.88-6.69-6.79-8.4-2.92-1.71-6.92-2.57-12.02-2.57-7.03,0-12.53,1.92-16.49,5.76-4.07,4-6.11,9.71-6.11,17.16s2.34,12.96,7.03,17.35c4.54,4.28,10.39,6.42,17.54,6.42,3.66,0,7.08-.59,10.24-1.76,3.02-1.12,4.53-2.26,4.53-3.41v-8.15c0-1.93-.44-3.33-1.32-4.19-.76-.78-2.27-1.48-4.53-2.08-1.67-.44-2.46-.98-2.37-1.61.12-.68.31-1.1.59-1.25.28-.16.99-.17,2.13-.04,6.24.68,12.31.73,18.2.16.32-.03.59-.04.79-.04.79,0,1.19.5,1.19,1.49Z"/>
          <path class="st7" d="M582.57,740.82c-1,3.34-1.5,6.48-1.5,9.4,0,.5-.94.71-2.81.63-4.63-.21-10.36-.31-17.19-.31-7.27,0-13.75.13-19.43.39-.85.05-1.38,0-1.58-.18-.21-.17-.31-.57-.31-1.19,0-.68.63-1.07,1.89-1.17,2.87-.26,4.31-1.63,4.31-4.11v-36.15c0-1.83-.28-3.19-.84-4.07-.67-1.04-1.96-1.85-3.87-2.43-1.14-.37-1.64-.95-1.5-1.76.09-.57.28-.91.57-1.02.29-.1,1.06-.09,2.29.04,4.28.42,9.38.39,15.3-.08,1.06-.08,1.66-.1,1.8-.08.59.08.92.43,1.01,1.06.09.71-.1,1.19-.57,1.45-.18.1-.78.26-1.8.47-2.05.42-3.34.9-3.87,1.43-.53.54-.79,1.66-.79,3.39v35.06c0,2.19.83,3.69,2.48,4.48,1.66.8,4.67,1.19,9.04,1.19s7.25-.48,9.25-1.43c2.01-.95,3.64-2.75,4.9-5.39.47-1.04,1.19-1.4,2.15-1.06.94.21,1.29.69,1.06,1.45Z"/>
          <path class="st7" d="M614.67,699.93c0,.65-.79,1.19-2.37,1.61-3.55.94-5.32,2.17-5.32,3.68v38.11c0,2.45,1.63,3.94,4.88,4.46,1.61.26,2.42.77,2.42,1.53,0,.65-.14,1.06-.42,1.21-.28.16-1.03.21-2.26.16-7.74-.29-13.72-.29-17.94,0-1.08.08-1.71-.1-1.89-.55-.06-.18-.09-.46-.09-.82,0-.52.66-.91,1.98-1.18,2.46-.5,3.88-.85,4.26-1.06.94-.52,1.41-1.59,1.41-3.21v-38.42c0-2.17-1.64-3.5-4.92-4-1.38-.21-2.07-.59-2.07-1.14,0-.76.11-1.22.33-1.39.22-.17.74-.22,1.56-.14,5.72.55,11.62.5,17.72-.16,1.14-.13,1.82-.17,2.02-.12.47.13.7.6.7,1.41Z"/>
          <path class="st7" d="M666.06,736.98c0,4.41-1.82,7.95-5.45,10.61-3.78,2.77-8.95,4.15-15.52,4.15-8.65,0-13.72-1.42-15.21-4.27-.91-1.72-1.82-3.92-2.73-6.58-.38-1.23-.1-2.02.84-2.39,1.17-.47,2.1-.26,2.77.63,2.49,3.29,5,5.63,7.52,7.01,2.43,1.33,5.28,2,8.53,2,8.15,0,12.22-2.9,12.22-8.7,0-2.27-.89-4.2-2.68-5.8-1.73-1.49-5.31-3.54-10.73-6.15-6.86-3.29-11.37-5.88-13.54-7.76-2.67-2.32-4-5.2-4-8.62,0-3.63,1.71-6.72,5.12-9.28,3.41-2.56,7.77-3.84,13.08-3.84,3.75,0,7.4.42,10.95,1.25,2.73.65,4.26,1.49,4.62,2.51.73,2.11,1.22,4.73,1.45,7.83.06,1.12-.37,1.75-1.27,1.88-1.14.16-1.95-.2-2.42-1.06-1.82-3.26-3.88-5.56-6.2-6.89-2.14-1.23-4.94-1.84-8.4-1.84-3.08,0-5.51.64-7.3,1.92-1.79,1.28-2.68,3.09-2.68,5.44,0,2.19.88,4.09,2.64,5.68,1.67,1.49,4.75,3.24,9.23,5.25,6.92,3.08,11.68,5.69,14.29,7.83,3.25,2.64,4.88,5.69,4.88,9.17Z"/>
          <path class="st7" d="M745.95,749.55c0,.68-.1,1.1-.29,1.25-.19.16-.73.2-1.6.12-5.75-.44-11.53-.55-17.37-.31-1.14.05-1.87,0-2.18-.18-.31-.17-.46-.57-.46-1.19,0-.83.78-1.34,2.33-1.53,2.46-.29,3.69-1.46,3.69-3.52v-15.39c0-1.12-.15-1.87-.44-2.25-.29-.38-.98-.57-2.07-.57h-31.08c-1.29,0-2.09.14-2.4.43-.31.29-.46,1.03-.46,2.23v15.55c0,1.49,1.83,2.66,5.5,3.52,1.61.39,2.42.9,2.42,1.53s-.13,1.06-.4,1.21c-.26.16-1,.21-2.2.16-5.83-.23-11.62-.13-17.37.31-.88.08-1.41.04-1.6-.12-.19-.16-.29-.57-.29-1.25s.63-1.07,1.89-1.17c2.87-.26,4.31-1.66,4.31-4.19v-37.6c0-2.43-1.63-3.96-4.88-4.58-1.17-.23-1.87-.41-2.09-.53s-.33-.4-.33-.84c0-.34.03-.59.09-.74.18-.5,1.04-.71,2.59-.63,7.42.37,13.39.37,17.94,0,.82-.05,1.36,0,1.6.16s.37.56.37,1.21c0,.5-.66.88-1.98,1.14-2.35.44-3.75.8-4.22,1.06-.91.52-1.36,1.58-1.36,3.17v13.24c0,1.83,1,2.74,2.99,2.74h30.6c1.2,0,1.95-.12,2.24-.35.41-.34.62-1.19.62-2.55v-13.47c0-1.41-.41-2.35-1.23-2.82-.47-.29-1.7-.6-3.69-.94-1.64-.29-2.46-.74-2.46-1.37,0-.71.15-1.15.44-1.33.29-.18,1.06-.22,2.29-.12,3.25.29,6.59.35,10.02.2,2.43-.1,4.88-.22,7.34-.35.82,0,1.34.07,1.56.2.22.13.33.55.33,1.25s-.63,1.08-1.89,1.21c-3.23.31-4.84,1.67-4.84,4.07v38.58c0,1.28.51,2.22,1.54,2.82.82.47,2.34.93,4.57,1.37,1.26.23,1.89.63,1.89,1.17Z"/>
        </g>
        <g>
          <path class="st7" d="M361.64,817.4c-.18.71-.37,1.12-.57,1.25-.18.1-.59.08-1.23-.08-4.19-.68-10.32-.76-18.38-.23-1.52.1-2.36-.16-2.51-.78-.15-.73.34-1.29,1.45-1.68,3.17-1.15,4.75-2.22,4.75-3.21,0-.39-.18-.95-.53-1.68-2.17-4.62-3.97-8.34-5.41-11.16-2.08.1-5.75.16-10.99.16-4.34,0-8.03-.1-11.08-.31-1.03,2.25-2.46,5.38-4.31,9.4-.41.91-.62,1.74-.62,2.47,0,1.46.89,2.53,2.68,3.21,2.75,1.04,4.1,1.84,4.04,2.39-.06.89-.98,1.24-2.77,1.06-5.51-.52-10.61-.37-15.3.47-1.23.23-1.92-.16-2.07-1.18-.12-.68.84-1.41,2.86-2.19,2.17-.81,4-2.68,5.5-5.6,5.72-11.05,9.41-18.3,11.08-21.78,4.04-8.33,6.9-15.13,8.57-20.41.23-.81,1.39-1.57,3.47-2.27.5-.16,1.13.6,1.89,2.27,6.33,13.58,13.42,28.1,21.28,43.56,1.26,2.45,3.39,4.09,6.38,4.9,1.35.34,1.95.82,1.8,1.45ZM337.76,796.76c-1.93-3.92-4.95-9.99-9.06-18.21-.24-.44-.5-.67-.79-.67s-.54.22-.75.67l-8.4,18.06c3.14.21,6.65.31,10.55.31,2.4,0,5.22-.05,8.44-.16Z"/>
          <path class="st7" d="M425.78,805.42c-.38,3.47-1.01,6.28-1.89,8.42-.59,1.38-2.84,2.62-6.77,3.72-4.28,1.17-9.2,1.76-14.77,1.76-9.2,0-16.87-2.44-22.99-7.32-6.21-4.96-9.32-11.32-9.32-19.07s3.21-14.49,9.63-19.74c6.18-5.07,13.66-7.6,22.42-7.6,6.21,0,11.43.67,15.65,2,3.75,1.17,5.7,2.27,5.85,3.29.32,1.98.48,5.21.48,9.67,0,.73-.75,1.16-2.24,1.29-1.14.1-1.85-.21-2.11-.94-1.55-4.46-3.63-7.56-6.22-9.28-2.59-1.72-6.48-2.58-11.67-2.58-6.51,0-11.81,1.92-15.92,5.76-4.46,4.18-6.68,9.9-6.68,17.16s2.34,13.03,7.03,17.47c4.57,4.36,10.42,6.54,17.54,6.54,4.63,0,8.28-.89,10.95-2.66,2.55-1.7,4.63-4.48,6.24-8.34.47-1.12,1.52-1.53,3.17-1.21,1.17.24,1.71.8,1.63,1.68Z"/>
          <path class="st7" d="M497.8,817.4c-.18.71-.37,1.12-.57,1.25-.18.1-.59.08-1.23-.08-4.19-.68-10.32-.76-18.38-.23-1.52.1-2.36-.16-2.51-.78-.15-.73.34-1.29,1.45-1.68,3.17-1.15,4.75-2.22,4.75-3.21,0-.39-.18-.95-.53-1.68-2.17-4.62-3.97-8.34-5.41-11.16-2.08.1-5.75.16-10.99.16-4.34,0-8.03-.1-11.08-.31-1.03,2.25-2.46,5.38-4.31,9.4-.41.91-.62,1.74-.62,2.47,0,1.46.89,2.53,2.68,3.21,2.75,1.04,4.1,1.84,4.04,2.39-.06.89-.98,1.24-2.77,1.06-5.51-.52-10.61-.37-15.3.47-1.23.23-1.92-.16-2.07-1.18-.12-.68.84-1.41,2.86-2.19,2.17-.81,4-2.68,5.5-5.6,5.72-11.05,9.41-18.3,11.08-21.78,4.04-8.33,6.9-15.13,8.57-20.41.23-.81,1.39-1.57,3.47-2.27.5-.16,1.13.6,1.89,2.27,6.33,13.58,13.42,28.1,21.28,43.56,1.26,2.45,3.39,4.09,6.38,4.9,1.35.34,1.95.82,1.8,1.45ZM473.93,796.76c-1.93-3.92-4.95-9.99-9.06-18.21-.24-.44-.5-.67-.79-.67s-.54.22-.75.67l-8.4,18.06c3.14.21,6.65.31,10.55.31,2.4,0,5.22-.05,8.44-.16Z"/>
          <path class="st7" d="M567.62,791.47c0,9.09-3.37,15.98-10.11,20.68-6.3,4.33-15.07,6.5-26.29,6.5-.94,0-3.06-.08-6.38-.24-3.31-.16-5.86-.23-7.65-.23-2.4,0-5.07.1-8,.31-1.26.1-1.89-.35-1.89-1.37,0-.68.63-1.07,1.89-1.17,2.87-.26,4.31-1.66,4.31-4.19v-37.52c0-1.41-.32-2.36-.97-2.86-.53-.39-1.69-.76-3.47-1.1-1.49-.26-2.4-.48-2.73-.67-.32-.18-.51-.57-.57-1.17-.09-.63.22-1.03.92-1.21.15-.03.79-.08,1.93-.16,6.3-.37,14.66-.55,25.06-.55s18.25,2.17,24.4,6.5c6.36,4.49,9.54,10.64,9.54,18.45ZM558.43,792.53c0-15.15-8.73-22.72-26.2-22.72h-6.16c-3.22.26-4.84,1.06-4.84,2.39v36.35c0,2.56.76,4.27,2.29,5.13,1.52.86,4.57,1.29,9.15,1.29,17.18,0,25.76-7.48,25.76-22.44Z"/>
          <path class="st7" d="M623.55,808.39c-.82,3.11-1.36,6.24-1.63,9.4-.03.5-.92.71-2.68.63-4.57-.21-10.41-.31-17.5-.31-7.8,0-14.51.13-20.14.39-1.26.05-1.89-.4-1.89-1.37,0-.68.63-1.07,1.89-1.17,1.76-.18,2.89-.48,3.39-.9.62-.52.92-1.62.92-3.29v-36.07c0-2.43-.25-3.96-.75-4.6-.5-.64-1.88-1.27-4.13-1.9-1.2-.34-1.64-.98-1.32-1.92.15-.5.38-.77.7-.82.29-.08,1.07-.03,2.33.16,1.88.26,6.77.39,14.69.39s14.67-.16,20.36-.47c1.9-.1,2.86.01,2.86.35,0,.13-.03.26-.09.39-.62,2.56-.88,5.5-.79,8.81.03.81-.4,1.21-1.27,1.21-.82,0-1.39-.35-1.71-1.06-.82-1.83-1.54-3.07-2.15-3.72-.94-.99-2.29-1.62-4.04-1.88-1.41-.24-6.36-.35-14.86-.35-.97,0-1.58.14-1.85.43-.15.16-.22.55-.22,1.18v16.37c0,.65.42.98,1.27.98,2.7-.05,6.57-.22,11.61-.51.88-.08,1.52-.46,1.93-1.14.32-.52.66-1.61,1.01-3.25.26-1.12.95-1.53,2.07-1.21,1,.16,1.42.56,1.27,1.21-.82,3.55-1.08,8.17-.79,13.87.03.63-.45,1.01-1.45,1.14-.88.1-1.39-.33-1.54-1.29-.29-2.01-.67-3.34-1.12-3.98-.45-.64-1.31-1.02-2.57-1.16-2.4-.26-6.04-.39-10.9-.39-.53,0-.79.18-.79.55v17.08c0,2.43,1.58,3.92,4.75,4.46.79.13,3.53.2,8.22.2,7.3,0,11.86-2.27,13.67-6.81.44-1.07,1.16-1.42,2.15-1.06.94.21,1.3.69,1.1,1.45Z"/>
          <path class="st7" d="M710.55,816.89c0,.65-.15,1.06-.46,1.21-.31.16-1.09.21-2.35.16-7.65-.29-13.59-.29-17.81,0-1.32.08-1.98-.38-1.98-1.37,0-.55.66-.94,1.98-1.18,2.61-.52,4.18-.95,4.7-1.29.64-.44.94-1.44.88-2.98l-1.54-33.45c-.03-.68-.23-1.02-.62-1.02-.29,0-.57.23-.84.71-5.22,9.35-8.88,15.99-10.99,19.94-4.25,7.86-7.25,13.83-9.01,17.9-.79,1.91-1.2,2.89-1.23,2.94-.29.47-.72.78-1.27.94-.29.08-.54.12-.75.12-.59,0-1.11-.77-1.58-2.31-1.85-5.9-8.21-19-19.08-39.29-.32-.6-.67-.9-1.06-.9-.47,0-.72.41-.75,1.21-.41,7.75-.89,18.08-1.45,30.98-.18,3.45,1.77,5.5,5.85,6.15,1.61.26,2.42.77,2.42,1.53,0,.65-.15,1.06-.46,1.21-.31.16-1.08.21-2.31.16-6.74-.23-11.97-.23-15.7,0-1.32.08-1.98-.38-1.98-1.37,0-.55.66-.94,1.98-1.18,2.34-.44,3.88-1.14,4.62-2.08.59-.73.91-2.05.97-3.96l1.54-34.66c.06-1.51-.28-2.68-1.01-3.49-.65-.71-1.95-1.46-3.91-2.27-1.41-.57-2.07-1.19-1.98-1.84.06-.71.69-.98,1.89-.82,4.48.57,8.41.68,11.78.31,1.29-.13,2.17-.1,2.64.08.47.18.88.64,1.23,1.37l18.38,37.48c.23.52.44.78.62.78s.44-.35.79-1.06c1.17-2.25,7.72-14.35,19.65-36.31.73-1.33,1.66-2,2.77-2,2.73,0,6.54-.35,11.43-1.06,1.11-.16,1.8-.21,2.07-.16.5.13.75.61.75,1.45,0,.63-.78,1.16-2.33,1.61-3.66,1.02-5.47,2.25-5.41,3.68l1.63,38.11c.06,1.51.48,2.58,1.28,3.21.64.55,1.83.97,3.56,1.25,1.64.29,2.46.8,2.46,1.53Z"/>
          <path class="st7" d="M782.4,767.66c0,.89-.94,1.58-2.81,2.08-2.14.57-4.51,2.36-7.12,5.37-5.13,5.95-8.32,9.69-9.58,11.2-2.96,3.6-5.55,7.04-7.78,10.3v13.87c0,1.85.4,3.12,1.19,3.8.64.52,2.14,1.03,4.48,1.53,1.76.34,2.54.98,2.33,1.92-.12.6-.47.93-1.06.98-.06.03-.66-.01-1.8-.12-5.83-.44-11.56-.47-17.19-.08-1.76.29-2.73-.03-2.9-.94-.18-.86.34-1.42,1.54-1.68,2.4-.57,3.96-1.27,4.68-2.1.72-.82,1.08-2.29,1.08-4.41v-10.69c-3.99-6.95-10.6-15.26-19.83-24.95-2.37-2.48-4.78-3.94-7.21-4.39-1.44-.26-2.15-.64-2.15-1.14,0-1.2.63-1.74,1.89-1.61,5.31.57,11.77.34,19.39-.71,1.06-.16,1.71-.21,1.98-.16.47.13.7.57.7,1.33,0,.57-.75,1.11-2.24,1.61-2.55.86-3.83,1.79-3.83,2.78,0,.5.31,1.12.92,1.88,3.72,4.44,8.59,10.81,14.6,19.11.35.47.63.71.84.71.23,0,.53-.23.88-.71,1.29-1.72,3.5-4.54,6.62-8.46,3.12-3.92,5.44-6.91,6.97-8.97.76-.99,1.14-1.85,1.14-2.58,0-1.38-1.33-2.47-4-3.25-1.44-.44-2.1-1.06-1.98-1.84.12-.91,1.1-1.27,2.95-1.06,5.77.63,10.92.68,15.43.16,1.26-.13,1.89.27,1.89,1.21Z"/>
        </g>
      </g>
      <g>
        <g>
          <line class="st7" x1="296.54" y1="835.88" x2="783.46" y2="835.88"/>
          <path class="st7" d="M296.54,835.88c156.16-2.69,315.51-2.62,471.7-.3,0,0,15.22.3,15.22.3l-15.22.3c-156.19,2.31-315.53,2.38-471.7-.3h0Z"/>
        </g>
        <g>
          <line class="st7" x1="220.56" y1="681.65" x2="859.44" y2="681.65"/>
          <path class="st7" d="M220.56,681.65c204.91-2.69,413.98-2.62,618.92-.3,0,0,19.97.3,19.97.3l-19.97.3c-204.94,2.31-414,2.38-618.92-.3h0Z"/>
        </g>
      </g>
    </g>
    <path class="st8" d="M438.51,844.17c25.47,15.36,51.03,30.19,77.14,44.28,7.51,3.97,14.97,8.15,22.83,11.29.86.34,2.1.74,2.79.83-.09-.01-.21.02-.26.04.64-.18,1.2-.43,1.89-.73,5.46-2.51,10.88-5.82,16.28-8.52,28.72-14.41,56.36-30.51,83.89-47.18-25.85,21.3-54.33,39.38-83.97,54.95-5.22,2.82-10.31,6.11-15.94,8.15-.84.27-1.87.38-2.74.24-5.33-1-10.05-3.77-14.84-6.08-30.64-16.43-60.06-35.34-87.06-57.25h0Z"/>
  </g>
  <path class="st45" d="M1853.3,394.41c-28.98-.61-59.65-3.31-88.61-1.58-20.89,1.24-41.35,5-54.34,22.86-4.72,6.49-6.39,16.55-12.94,21.1l18.36-54.28,187.47.53-217.95,229.33c69.22,28.48,159.4,63.5,230.54,22.43,33.17-19.14,58.11-59.08,48.8-98.17-1.65-6.91-5.31-11.92-7.77-17.97-.9-2.21-.92-4.41,1.62-3.14,6.38,3.17,12.45,26.72,12.95,33.98,4.15,59.91-52.82,103.03-105.71,115.42-69.9,16.38-137.3-8.08-199.15-38.68-22.91,18.97-50.13,33.57-79.37,40.19-5.88,1.33-31.6,6.05-35.61,4.76-1.98-.64-2.95-2.23-2.53-4.3,32.41-1.93,61.57-18.55,85.48-39.4,2.11-1.84,12.59-10.42,11.39-12.05l-113.05-60.33c-19.53,17.12-39.45,33.66-62.51,45.96-31.85,17-77.81,31.28-113.93,24.55-55.98-10.43-64.74-67.63-17.67-97.12,54.09-33.9,133.09-11.72,188.18,9.52,22.01-25.55,40.43-53.86,58.41-82.33l-2.25-2.26c-52.49,20.01-112.63,35.5-166.78,12.4-56.82-24.23-75.64-86.54-43.5-139.41,43.34-71.31,161.6-79.07,223.14-28.1.63,3.03-1.31,2.71-3.45,1.93-5.63-2.03-15.3-10.17-22.76-13.57-48.69-22.23-107.96-20.4-152.86,9.63-56.33,37.67-74.21,119.42-9.06,158.36,55.32,33.07,128.93,12.37,184.33-10.33,43.28-71.39,93.23-170.94,168.78-212.67,67.99-37.55,79.38,9.62,44.89,61.54-30.82,46.38-90.33,92.53-138.25,120.6-9.48,5.56-35.46,16.55-41.4,22.17-10.07,9.53-28.14,42.8-38.68,56.68-13.59,17.91-28.54,35-44.47,50.87l117.94,56.13,192.33-205.22ZM1632.31,426.18c26.48-12.88,52.4-28.29,76.16-45.67,34.36-25.13,106.08-91.1,108.57-135.13.94-16.71-2.47-22.76-20.37-20.37-29.23,3.89-69.31,54.2-85.98,77.49-28.18,39.36-52.23,82.91-78.38,123.69ZM1517.27,547.3c-51.56-19.72-125.09-44.97-176.1-11.88-41.65,27.01-29.85,80.59,20.89,84.58,50.99,4.01,103.6-21.14,140.09-55.28,2.24-2.1,16.74-15.61,15.12-17.42Z"/>
  <path class="st41" d="M1927.09,611.5c3.45-15.89,5.64-32.1,5.63-48.21l-1.38-48.84c-.76-32.55-1.64-65.1-2.18-97.63-1.28-61.15-2.26-134.01-2.91-195.17,0,0,5.71,7.54,5.71,7.54-16.6-4.38-37.09-9.4-53.83-13.1-8.23-1.83-18.81-3.82-27.14-5.53-116.29-22.27-236.25-26.03-353.78-11.83-50.5,5.99-100.27,16.79-149.54,29.43,0,0,4.96-6.45,4.96-6.45l-.54,36.19c-1.48,83.68-3.2,169.74-6.26,253.3-.89-24.12-1.61-48.25-2.26-72.37-1.31-46.4-2.34-98.27-3.15-144.75-.21-18.03-1.03-54.34-1.16-72.37,0,0-.07-5.03-.07-5.03l5.03-1.43c53.9-15.48,108.99-28.34,164.82-34.69,105.34-13.13,213.08-10.26,317.62,8.1,38.78,6.76,77.56,16.15,115.33,27.07-.22,27.23-.79,76.34-1.12,103.59-1.15,79.64-2.61,164.5-4.92,244.06-.87,16.3-4.27,32.49-8.86,48.12h0Z"/>
  <g class="st22">
    <g>
      <g>
        <path class="st4" d="M1479.18,740.82c-.82,3.11-1.36,6.24-1.63,9.4-.03.5-.92.71-2.68.63-4.57-.21-10.41-.31-17.5-.31-7.8,0-14.51.13-20.14.39-1.26.05-1.89-.4-1.89-1.37,0-.68.63-1.07,1.89-1.17,1.76-.18,2.89-.48,3.39-.9.62-.52.92-1.62.92-3.29v-36.07c0-2.43-.25-3.96-.75-4.6-.5-.64-1.88-1.27-4.13-1.9-1.2-.34-1.64-.98-1.32-1.92.15-.5.38-.77.7-.82.29-.08,1.07-.03,2.33.16,1.88.26,6.77.39,14.69.39s14.67-.16,20.36-.47c1.9-.1,2.86.01,2.86.35,0,.13-.03.26-.09.39-.62,2.56-.88,5.5-.79,8.81.03.81-.4,1.21-1.27,1.21-.82,0-1.39-.35-1.71-1.06-.82-1.83-1.54-3.07-2.15-3.72-.94-.99-2.29-1.62-4.04-1.88-1.41-.24-6.36-.35-14.86-.35-.97,0-1.58.14-1.85.43-.15.16-.22.55-.22,1.18v16.37c0,.65.42.98,1.27.98,2.7-.05,6.57-.22,11.61-.51.88-.08,1.52-.46,1.93-1.14.32-.52.66-1.61,1.01-3.25.26-1.12.95-1.53,2.07-1.21,1,.16,1.42.56,1.27,1.21-.82,3.55-1.08,8.17-.79,13.87.03.63-.45,1.01-1.45,1.14-.88.1-1.39-.33-1.54-1.29-.29-2.01-.67-3.34-1.12-3.98-.45-.64-1.31-1.02-2.57-1.16-2.4-.26-6.04-.39-10.9-.39-.53,0-.79.18-.79.55v17.08c0,2.43,1.58,3.92,4.75,4.46.79.13,3.53.2,8.22.2,7.3,0,11.86-2.27,13.67-6.81.44-1.07,1.16-1.42,2.15-1.06.94.21,1.3.69,1.1,1.45Z"/>
        <path class="st21" d="M1556.92,699.85c0,.65-.79,1.19-2.37,1.61-3.52.89-5.28,2.7-5.28,5.44v28.16c0,5.93.09,10.71.26,14.34.06,1.38-.31,2.17-1.1,2.35-1.32.29-2.43-.33-3.34-1.84-1.47-2.48-7.21-8.59-17.23-18.33-8.38-8.12-16.5-15.71-24.36-22.76-.26-.24-.53-.3-.79-.2-.29.13-.44.43-.44.9v32.12c0,3.45,1.95,5.5,5.85,6.15,1.61.29,2.42.8,2.42,1.53,0,.99-.91,1.45-2.73,1.37-6.98-.26-12.4-.26-16.27,0-1.26.08-1.89-.38-1.89-1.37,0-.55.63-.94,1.89-1.18,2.26-.47,3.77-1.11,4.53-1.92.76-.81,1.14-2.18,1.14-4.11v-34.66c0-1.51-.35-2.68-1.06-3.49-.67-.73-1.98-1.49-3.91-2.27-1.44-.6-2.13-1.21-2.07-1.84.09-.71.75-.98,1.98-.82,3.81.47,7.11.57,9.89.31,1.44-.13,2.73.35,3.87,1.45l36.84,34.98c.5.5.84.74,1.01.74.23,0,.35-.35.35-1.06v-28.32c0-3.32-1.95-5.27-5.85-5.88-1.38-.21-2.07-.57-2.07-1.1,0-1.1.63-1.58,1.89-1.45,4.81.47,10.17.42,16.09-.16,1.03-.1,1.69-.12,1.98-.04.5.13.75.57.75,1.33Z"/>
        <path class="st0" d="M1629.77,727.27c0,.84-.69,1.35-2.07,1.53-1.93.26-3.06.44-3.39.55-1.06.39-1.58,1.15-1.58,2.27v12.26c0,1.54-2.26,3.19-6.77,4.94-5.07,1.96-10.77,2.94-17.1,2.94-9.2,0-16.87-2.44-22.99-7.32-6.21-4.96-9.32-11.32-9.32-19.07s3.21-14.49,9.63-19.74c6.21-5.07,13.69-7.6,22.42-7.6,6.71,0,12.41.72,17.1,2.15,3.46,1.04,5.26,2.09,5.41,3.13.29,1.98.44,4.92.44,8.81,0,.86-.6,1.32-1.8,1.37-1.41.05-2.27-.3-2.59-1.06-1.61-3.89-3.88-6.69-6.79-8.4-2.92-1.71-6.92-2.57-12.02-2.57-7.03,0-12.53,1.92-16.49,5.76-4.07,4-6.11,9.71-6.11,17.16s2.34,12.96,7.03,17.35c4.54,4.28,10.39,6.42,17.54,6.42,3.66,0,7.08-.59,10.24-1.76,3.02-1.12,4.53-2.26,4.53-3.41v-8.15c0-1.93-.44-3.33-1.32-4.19-.76-.78-2.27-1.48-4.53-2.08-1.67-.44-2.46-.98-2.37-1.61.12-.68.31-1.1.59-1.25.28-.16.99-.17,2.13-.04,6.24.68,12.31.73,18.2.16.32-.03.59-.04.79-.04.79,0,1.19.5,1.19,1.49Z"/>
        <path class="st33" d="M1682.57,740.82c-1,3.34-1.5,6.48-1.5,9.4,0,.5-.94.71-2.81.63-4.63-.21-10.36-.31-17.19-.31-7.27,0-13.75.13-19.43.39-.85.05-1.38,0-1.58-.18-.21-.17-.31-.57-.31-1.19,0-.68.63-1.07,1.89-1.17,2.87-.26,4.31-1.63,4.31-4.11v-36.15c0-1.83-.28-3.19-.84-4.07-.67-1.04-1.96-1.85-3.87-2.43-1.14-.37-1.64-.95-1.5-1.76.09-.57.28-.91.57-1.02.29-.1,1.06-.09,2.29.04,4.28.42,9.38.39,15.3-.08,1.06-.08,1.66-.1,1.8-.08.59.08.92.43,1.01,1.06.09.71-.1,1.19-.57,1.45-.18.1-.78.26-1.8.47-2.05.42-3.34.9-3.87,1.43-.53.54-.79,1.66-.79,3.39v35.06c0,2.19.83,3.69,2.48,4.48,1.66.8,4.67,1.19,9.04,1.19s7.25-.48,9.25-1.43c2.01-.95,3.64-2.75,4.9-5.39.47-1.04,1.19-1.4,2.15-1.06.94.21,1.29.69,1.06,1.45Z"/>
        <path class="st14" d="M1714.67,699.93c0,.65-.79,1.19-2.37,1.61-3.55.94-5.32,2.17-5.32,3.68v38.11c0,2.45,1.63,3.94,4.88,4.46,1.61.26,2.42.77,2.42,1.53,0,.65-.14,1.06-.42,1.21-.28.16-1.03.21-2.26.16-7.74-.29-13.72-.29-17.94,0-1.08.08-1.71-.1-1.89-.55-.06-.18-.09-.46-.09-.82,0-.52.66-.91,1.98-1.18,2.46-.5,3.88-.85,4.26-1.06.94-.52,1.41-1.59,1.41-3.21v-38.42c0-2.17-1.64-3.5-4.92-4-1.38-.21-2.07-.59-2.07-1.14,0-.76.11-1.22.33-1.39.22-.17.74-.22,1.56-.14,5.72.55,11.62.5,17.72-.16,1.14-.13,1.82-.17,2.02-.12.47.13.7.6.7,1.41Z"/>
        <path class="st51" d="M1766.06,736.98c0,4.41-1.82,7.95-5.45,10.61-3.78,2.77-8.95,4.15-15.52,4.15-8.65,0-13.72-1.42-15.21-4.27-.91-1.72-1.82-3.92-2.73-6.58-.38-1.23-.1-2.02.84-2.39,1.17-.47,2.1-.26,2.77.63,2.49,3.29,5,5.63,7.52,7.01,2.43,1.33,5.28,2,8.53,2,8.15,0,12.22-2.9,12.22-8.7,0-2.27-.89-4.2-2.68-5.8-1.73-1.49-5.31-3.54-10.73-6.15-6.86-3.29-11.37-5.88-13.54-7.76-2.67-2.32-4-5.2-4-8.62,0-3.63,1.71-6.72,5.12-9.28,3.41-2.56,7.77-3.84,13.08-3.84,3.75,0,7.4.42,10.95,1.25,2.73.65,4.26,1.49,4.62,2.51.73,2.11,1.22,4.73,1.45,7.83.06,1.12-.37,1.75-1.27,1.88-1.14.16-1.95-.2-2.42-1.06-1.82-3.26-3.88-5.56-6.2-6.89-2.14-1.23-4.94-1.84-8.4-1.84-3.08,0-5.51.64-7.3,1.92-1.79,1.28-2.68,3.09-2.68,5.44,0,2.19.88,4.09,2.64,5.68,1.67,1.49,4.75,3.24,9.23,5.25,6.92,3.08,11.68,5.69,14.29,7.83,3.25,2.64,4.88,5.69,4.88,9.17Z"/>
        <path class="st39" d="M1845.95,749.55c0,.68-.1,1.1-.29,1.25-.19.16-.73.2-1.6.12-5.75-.44-11.53-.55-17.37-.31-1.14.05-1.87,0-2.18-.18-.31-.17-.46-.57-.46-1.19,0-.83.78-1.34,2.33-1.53,2.46-.29,3.69-1.46,3.69-3.52v-15.39c0-1.12-.15-1.87-.44-2.25-.29-.38-.98-.57-2.07-.57h-31.08c-1.29,0-2.09.14-2.4.43-.31.29-.46,1.03-.46,2.23v15.55c0,1.49,1.83,2.66,5.5,3.52,1.61.39,2.42.9,2.42,1.53s-.13,1.06-.4,1.21c-.26.16-1,.21-2.2.16-5.83-.23-11.62-.13-17.37.31-.88.08-1.41.04-1.6-.12-.19-.16-.29-.57-.29-1.25s.63-1.07,1.89-1.17c2.87-.26,4.31-1.66,4.31-4.19v-37.6c0-2.43-1.63-3.96-4.88-4.58-1.17-.23-1.87-.41-2.09-.53s-.33-.4-.33-.84c0-.34.03-.59.09-.74.18-.5,1.04-.71,2.59-.63,7.42.37,13.39.37,17.94,0,.82-.05,1.36,0,1.6.16s.37.56.37,1.21c0,.5-.66.88-1.98,1.14-2.35.44-3.75.8-4.22,1.06-.91.52-1.36,1.58-1.36,3.17v13.24c0,1.83,1,2.74,2.99,2.74h30.6c1.2,0,1.95-.12,2.24-.35.41-.34.62-1.19.62-2.55v-13.47c0-1.41-.41-2.35-1.23-2.82-.47-.29-1.7-.6-3.69-.94-1.64-.29-2.46-.74-2.46-1.37,0-.71.15-1.15.44-1.33.29-.18,1.06-.22,2.29-.12,3.25.29,6.59.35,10.02.2,2.43-.1,4.88-.22,7.34-.35.82,0,1.34.07,1.56.2.22.13.33.55.33,1.25s-.63,1.08-1.89,1.21c-3.23.31-4.84,1.67-4.84,4.07v38.58c0,1.28.51,2.22,1.54,2.82.82.47,2.34.93,4.57,1.37,1.26.23,1.89.63,1.89,1.17Z"/>
      </g>
      <g>
        <path class="st46" d="M1461.64,817.4c-.18.71-.37,1.12-.57,1.25-.18.1-.59.08-1.23-.08-4.19-.68-10.32-.76-18.38-.23-1.52.1-2.36-.16-2.51-.78-.15-.73.34-1.29,1.45-1.68,3.17-1.15,4.75-2.22,4.75-3.21,0-.39-.18-.95-.53-1.68-2.17-4.62-3.97-8.34-5.41-11.16-2.08.1-5.75.16-10.99.16-4.34,0-8.03-.1-11.08-.31-1.03,2.25-2.46,5.38-4.31,9.4-.41.91-.62,1.74-.62,2.47,0,1.46.89,2.53,2.68,3.21,2.75,1.04,4.1,1.84,4.04,2.39-.06.89-.98,1.24-2.77,1.06-5.51-.52-10.61-.37-15.3.47-1.23.23-1.92-.16-2.07-1.18-.12-.68.84-1.41,2.86-2.19,2.17-.81,4-2.68,5.5-5.6,5.72-11.05,9.41-18.3,11.08-21.78,4.04-8.33,6.9-15.13,8.57-20.41.23-.81,1.39-1.57,3.47-2.27.5-.16,1.13.6,1.89,2.27,6.33,13.58,13.42,28.1,21.28,43.56,1.26,2.45,3.39,4.09,6.38,4.9,1.35.34,1.95.82,1.8,1.45ZM1437.76,796.76c-1.93-3.92-4.95-9.99-9.06-18.21-.24-.44-.5-.67-.79-.67s-.54.22-.75.67l-8.4,18.06c3.14.21,6.65.31,10.55.31,2.4,0,5.22-.05,8.44-.16Z"/>
        <path class="st19" d="M1525.78,805.42c-.38,3.47-1.01,6.28-1.89,8.42-.59,1.38-2.84,2.62-6.77,3.72-4.28,1.17-9.2,1.76-14.77,1.76-9.2,0-16.87-2.44-22.99-7.32-6.21-4.96-9.32-11.32-9.32-19.07s3.21-14.49,9.63-19.74c6.18-5.07,13.66-7.6,22.42-7.6,6.21,0,11.43.67,15.65,2,3.75,1.17,5.7,2.27,5.85,3.29.32,1.98.48,5.21.48,9.67,0,.73-.75,1.16-2.24,1.29-1.14.1-1.85-.21-2.11-.94-1.55-4.46-3.63-7.56-6.22-9.28-2.59-1.72-6.48-2.58-11.67-2.58-6.51,0-11.81,1.92-15.92,5.76-4.46,4.18-6.68,9.9-6.68,17.16s2.34,13.03,7.03,17.47c4.57,4.36,10.42,6.54,17.54,6.54,4.63,0,8.28-.89,10.95-2.66,2.55-1.7,4.63-4.48,6.24-8.34.47-1.12,1.52-1.53,3.17-1.21,1.17.24,1.71.8,1.63,1.68Z"/>
        <path class="st23" d="M1597.8,817.4c-.18.71-.37,1.12-.57,1.25-.18.1-.59.08-1.23-.08-4.19-.68-10.32-.76-18.38-.23-1.52.1-2.36-.16-2.51-.78-.15-.73.34-1.29,1.45-1.68,3.17-1.15,4.75-2.22,4.75-3.21,0-.39-.18-.95-.53-1.68-2.17-4.62-3.97-8.34-5.41-11.16-2.08.1-5.75.16-10.99.16-4.34,0-8.03-.1-11.08-.31-1.03,2.25-2.46,5.38-4.31,9.4-.41.91-.62,1.74-.62,2.47,0,1.46.89,2.53,2.68,3.21,2.75,1.04,4.1,1.84,4.04,2.39-.06.89-.98,1.24-2.77,1.06-5.51-.52-10.61-.37-15.3.47-1.23.23-1.92-.16-2.07-1.18-.12-.68.84-1.41,2.86-2.19,2.17-.81,4-2.68,5.5-5.6,5.72-11.05,9.41-18.3,11.08-21.78,4.04-8.33,6.9-15.13,8.57-20.41.23-.81,1.39-1.57,3.47-2.27.5-.16,1.13.6,1.89,2.27,6.33,13.58,13.42,28.1,21.28,43.56,1.26,2.45,3.39,4.09,6.38,4.9,1.35.34,1.95.82,1.8,1.45ZM1573.93,796.76c-1.93-3.92-4.95-9.99-9.06-18.21-.24-.44-.5-.67-.79-.67s-.54.22-.75.67l-8.4,18.06c3.14.21,6.65.31,10.55.31,2.4,0,5.22-.05,8.44-.16Z"/>
        <path class="st32" d="M1667.62,791.47c0,9.09-3.37,15.98-10.11,20.68-6.3,4.33-15.07,6.5-26.29,6.5-.94,0-3.06-.08-6.38-.24-3.31-.16-5.86-.23-7.65-.23-2.4,0-5.07.1-8,.31-1.26.1-1.89-.35-1.89-1.37,0-.68.63-1.07,1.89-1.17,2.87-.26,4.31-1.66,4.31-4.19v-37.52c0-1.41-.32-2.36-.97-2.86-.53-.39-1.69-.76-3.47-1.1-1.49-.26-2.4-.48-2.73-.67-.32-.18-.51-.57-.57-1.17-.09-.63.22-1.03.92-1.21.15-.03.79-.08,1.93-.16,6.3-.37,14.66-.55,25.06-.55s18.25,2.17,24.4,6.5c6.36,4.49,9.54,10.64,9.54,18.45ZM1658.43,792.53c0-15.15-8.73-22.72-26.2-22.72h-6.16c-3.22.26-4.84,1.06-4.84,2.39v36.35c0,2.56.76,4.27,2.29,5.13,1.52.86,4.57,1.29,9.15,1.29,17.18,0,25.76-7.48,25.76-22.44Z"/>
        <path class="st36" d="M1723.55,808.39c-.82,3.11-1.36,6.24-1.63,9.4-.03.5-.92.71-2.68.63-4.57-.21-10.41-.31-17.5-.31-7.8,0-14.51.13-20.14.39-1.26.05-1.89-.4-1.89-1.37,0-.68.63-1.07,1.89-1.17,1.76-.18,2.89-.48,3.39-.9.62-.52.92-1.62.92-3.29v-36.07c0-2.43-.25-3.96-.75-4.6-.5-.64-1.88-1.27-4.13-1.9-1.2-.34-1.64-.98-1.32-1.92.15-.5.38-.77.7-.82.29-.08,1.07-.03,2.33.16,1.88.26,6.77.39,14.69.39s14.67-.16,20.36-.47c1.9-.1,2.86.01,2.86.35,0,.13-.03.26-.09.39-.62,2.56-.88,5.5-.79,8.81.03.81-.4,1.21-1.27,1.21-.82,0-1.39-.35-1.71-1.06-.82-1.83-1.54-3.07-2.15-3.72-.94-.99-2.29-1.62-4.04-1.88-1.41-.24-6.36-.35-14.86-.35-.97,0-1.58.14-1.85.43-.15.16-.22.55-.22,1.18v16.37c0,.65.42.98,1.27.98,2.7-.05,6.57-.22,11.61-.51.88-.08,1.52-.46,1.93-1.14.32-.52.66-1.61,1.01-3.25.26-1.12.95-1.53,2.07-1.21,1,.16,1.42.56,1.27,1.21-.82,3.55-1.08,8.17-.79,13.87.03.63-.45,1.01-1.45,1.14-.88.1-1.39-.33-1.54-1.29-.29-2.01-.67-3.34-1.12-3.98-.45-.64-1.31-1.02-2.57-1.16-2.4-.26-6.04-.39-10.9-.39-.53,0-.79.18-.79.55v17.08c0,2.43,1.58,3.92,4.75,4.46.79.13,3.53.2,8.22.2,7.3,0,11.86-2.27,13.67-6.81.44-1.07,1.16-1.42,2.15-1.06.94.21,1.3.69,1.1,1.45Z"/>
        <path class="st42" d="M1810.55,816.89c0,.65-.15,1.06-.46,1.21-.31.16-1.09.21-2.35.16-7.65-.29-13.59-.29-17.81,0-1.32.08-1.98-.38-1.98-1.37,0-.55.66-.94,1.98-1.18,2.61-.52,4.18-.95,4.7-1.29.64-.44.94-1.44.88-2.98l-1.54-33.45c-.03-.68-.23-1.02-.62-1.02-.29,0-.57.23-.84.71-5.22,9.35-8.88,15.99-10.99,19.94-4.25,7.86-7.25,13.83-9.01,17.9-.79,1.91-1.2,2.89-1.23,2.94-.29.47-.72.78-1.27.94-.29.08-.54.12-.75.12-.59,0-1.11-.77-1.58-2.31-1.85-5.9-8.21-19-19.08-39.29-.32-.6-.67-.9-1.06-.9-.47,0-.72.41-.75,1.21-.41,7.75-.89,18.08-1.45,30.98-.18,3.45,1.77,5.5,5.85,6.15,1.61.26,2.42.77,2.42,1.53,0,.65-.15,1.06-.46,1.21-.31.16-1.08.21-2.31.16-6.74-.23-11.97-.23-15.7,0-1.32.08-1.98-.38-1.98-1.37,0-.55.66-.94,1.98-1.18,2.34-.44,3.88-1.14,4.62-2.08.59-.73.91-2.05.97-3.96l1.54-34.66c.06-1.51-.28-2.68-1.01-3.49-.65-.71-1.95-1.46-3.91-2.27-1.41-.57-2.07-1.19-1.98-1.84.06-.71.69-.98,1.89-.82,4.48.57,8.41.68,11.78.31,1.29-.13,2.17-.1,2.64.08.47.18.88.64,1.23,1.37l18.38,37.48c.23.52.44.78.62.78s.44-.35.79-1.06c1.17-2.25,7.72-14.35,19.65-36.31.73-1.33,1.66-2,2.77-2,2.73,0,6.54-.35,11.43-1.06,1.11-.16,1.8-.21,2.07-.16.5.13.75.61.75,1.45,0,.63-.78,1.16-2.33,1.61-3.66,1.02-5.47,2.25-5.41,3.68l1.63,38.11c.06,1.51.48,2.58,1.28,3.21.64.55,1.83.97,3.56,1.25,1.64.29,2.46.8,2.46,1.53Z"/>
        <path class="st3" d="M1882.4,767.66c0,.89-.94,1.58-2.81,2.08-2.14.57-4.51,2.36-7.12,5.37-5.13,5.95-8.32,9.69-9.58,11.2-2.96,3.6-5.55,7.04-7.78,10.3v13.87c0,1.85.4,3.12,1.19,3.8.64.52,2.14,1.03,4.48,1.53,1.76.34,2.54.98,2.33,1.92-.12.6-.47.93-1.06.98-.06.03-.66-.01-1.8-.12-5.83-.44-11.56-.47-17.19-.08-1.76.29-2.73-.03-2.9-.94-.18-.86.34-1.42,1.54-1.68,2.4-.57,3.96-1.27,4.68-2.1.72-.82,1.08-2.29,1.08-4.41v-10.69c-3.99-6.95-10.6-15.26-19.83-24.95-2.37-2.48-4.78-3.94-7.21-4.39-1.44-.26-2.15-.64-2.15-1.14,0-1.2.63-1.74,1.89-1.61,5.31.57,11.77.34,19.39-.71,1.06-.16,1.71-.21,1.98-.16.47.13.7.57.7,1.33,0,.57-.75,1.11-2.24,1.61-2.55.86-3.83,1.79-3.83,2.78,0,.5.31,1.12.92,1.88,3.72,4.44,8.59,10.81,14.6,19.11.35.47.63.71.84.71.23,0,.53-.23.88-.71,1.29-1.72,3.5-4.54,6.62-8.46,3.12-3.92,5.44-6.91,6.97-8.97.76-.99,1.14-1.85,1.14-2.58,0-1.38-1.33-2.47-4-3.25-1.44-.44-2.1-1.06-1.98-1.84.12-.91,1.1-1.27,2.95-1.06,5.77.63,10.92.68,15.43.16,1.26-.13,1.89.27,1.89,1.21Z"/>
      </g>
    </g>
    <g>
      <g>
        <line class="st47" x1="1396.54" y1="835.88" x2="1883.46" y2="835.88"/>
        <path class="st20" d="M1396.54,835.88c156.16-2.69,315.51-2.62,471.7-.3,0,0,15.22.3,15.22.3l-15.22.3c-156.19,2.31-315.53,2.38-471.7-.3h0Z"/>
      </g>
      <g>
        <line class="st52" x1="1320.56" y1="681.65" x2="1959.44" y2="681.65"/>
        <path class="st1" d="M1320.56,681.65c204.91-2.69,413.98-2.62,618.92-.3,0,0,19.97.3,19.97.3l-19.97.3c-204.94,2.31-414,2.38-618.92-.3h0Z"/>
      </g>
    </g>
  </g>
  <path class="st17" d="M1538.51,844.17c25.47,15.36,51.03,30.19,77.14,44.28,7.51,3.97,14.97,8.15,22.83,11.29.86.34,2.1.74,2.79.83-.09-.01-.21.02-.26.04.64-.18,1.2-.43,1.89-.73,5.46-2.51,10.88-5.82,16.28-8.52,28.72-14.41,56.36-30.51,83.89-47.18-25.85,21.3-54.33,39.38-83.97,54.95-5.22,2.82-10.31,6.11-15.94,8.15-.84.27-1.87.38-2.74.24-5.33-1-10.05-3.77-14.84-6.08-30.64-16.43-60.06-35.34-87.06-57.25h0Z"/>
  <path class="st11" d="M2953.3,394.41c-28.98-.61-59.65-3.31-88.61-1.58-20.89,1.24-41.35,5-54.34,22.86-4.72,6.49-6.39,16.55-12.94,21.1l18.36-54.28,187.47.53-217.95,229.33c69.22,28.48,159.4,63.5,230.54,22.43,33.17-19.14,58.11-59.08,48.8-98.17-1.65-6.91-5.31-11.92-7.77-17.97-.9-2.21-.92-4.41,1.62-3.14,6.38,3.17,12.45,26.72,12.95,33.98,4.15,59.91-52.82,103.03-105.71,115.42-69.9,16.38-137.3-8.08-199.15-38.68-22.91,18.97-50.13,33.57-79.37,40.19-5.88,1.33-31.6,6.05-35.61,4.76-1.98-.64-2.95-2.23-2.53-4.3,32.41-1.93,61.57-18.55,85.48-39.4,2.11-1.84,12.59-10.42,11.39-12.05l-113.05-60.33c-19.53,17.12-39.45,33.66-62.51,45.96-31.85,17-77.81,31.28-113.93,24.55-55.98-10.43-64.74-67.63-17.67-97.12,54.09-33.9,133.09-11.72,188.18,9.52,22.01-25.55,40.43-53.86,58.41-82.33l-2.25-2.26c-52.49,20.01-112.63,35.5-166.78,12.4-56.82-24.23-75.64-86.54-43.5-139.41,43.34-71.31,161.6-79.07,223.14-28.1.63,3.03-1.31,2.71-3.45,1.93-5.63-2.03-15.3-10.17-22.76-13.57-48.69-22.23-107.96-20.4-152.86,9.63-56.33,37.67-74.21,119.42-9.06,158.36,55.32,33.07,128.93,12.37,184.33-10.33,43.28-71.39,93.23-170.94,168.78-212.67,67.99-37.55,79.38,9.62,44.89,61.54-30.82,46.38-90.33,92.53-138.25,120.6-9.48,5.56-35.46,16.55-41.4,22.17-10.07,9.53-28.14,42.8-38.68,56.68-13.59,17.91-28.54,35-44.47,50.87l117.94,56.13,192.33-205.22ZM2732.31,426.18c26.48-12.88,52.4-28.29,76.16-45.67,34.36-25.13,106.08-91.1,108.57-135.13.94-16.71-2.47-22.76-20.37-20.37-29.23,3.89-69.31,54.2-85.98,77.49-28.18,39.36-52.23,82.91-78.38,123.69ZM2617.27,547.3c-51.56-19.72-125.09-44.97-176.1-11.88-41.65,27.01-29.85,80.59,20.89,84.58,50.99,4.01,103.6-21.14,140.09-55.28,2.24-2.1,16.74-15.61,15.12-17.42Z"/>
  <path class="st9" d="M3027.09,611.5c3.45-15.89,5.64-32.1,5.63-48.21l-1.38-48.84c-.76-32.55-1.64-65.1-2.18-97.63-1.28-61.15-2.26-134.01-2.91-195.17,0,0,5.71,7.54,5.71,7.54-16.6-4.38-37.09-9.4-53.83-13.1-8.23-1.83-18.81-3.82-27.14-5.53-116.29-22.27-236.25-26.03-353.78-11.83-50.5,5.99-100.27,16.79-149.54,29.43,0,0,4.96-6.45,4.96-6.45l-.54,36.19c-1.48,83.68-3.2,169.74-6.26,253.3-.89-24.12-1.61-48.25-2.26-72.37-1.31-46.4-2.34-98.27-3.15-144.75-.21-18.03-1.03-54.34-1.16-72.37,0,0-.07-5.03-.07-5.03l5.03-1.43c53.9-15.48,108.99-28.34,164.82-34.69,105.34-13.13,213.08-10.26,317.62,8.1,38.78,6.76,77.56,16.15,115.33,27.07-.22,27.23-.79,76.34-1.12,103.59-1.15,79.64-2.61,164.5-4.92,244.06-.87,16.3-4.27,32.49-8.86,48.12h0Z"/>
  <g class="st31">
    <g>
      <g>
        <path class="st7" d="M2579.18,740.82c-.82,3.11-1.36,6.24-1.63,9.4-.03.5-.92.71-2.68.63-4.57-.21-10.41-.31-17.5-.31-7.8,0-14.51.13-20.14.39-1.26.05-1.89-.4-1.89-1.37,0-.68.63-1.07,1.89-1.17,1.76-.18,2.89-.48,3.39-.9.62-.52.92-1.62.92-3.29v-36.07c0-2.43-.25-3.96-.75-4.6-.5-.64-1.88-1.27-4.13-1.9-1.2-.34-1.64-.98-1.32-1.92.15-.5.38-.77.7-.82.29-.08,1.07-.03,2.33.16,1.88.26,6.77.39,14.69.39s14.67-.16,20.36-.47c1.9-.1,2.86.01,2.86.35,0,.13-.03.26-.09.39-.62,2.56-.88,5.5-.79,8.81.03.81-.4,1.21-1.27,1.21-.82,0-1.39-.35-1.71-1.06-.82-1.83-1.54-3.07-2.15-3.72-.94-.99-2.29-1.62-4.04-1.88-1.41-.24-6.36-.35-14.86-.35-.97,0-1.58.14-1.85.43-.15.16-.22.55-.22,1.18v16.37c0,.65.42.98,1.27.98,2.7-.05,6.57-.22,11.61-.51.88-.08,1.52-.46,1.93-1.14.32-.52.66-1.61,1.01-3.25.26-1.12.95-1.53,2.07-1.21,1,.16,1.42.56,1.27,1.21-.82,3.55-1.08,8.17-.79,13.87.03.63-.45,1.01-1.45,1.14-.88.1-1.39-.33-1.54-1.29-.29-2.01-.67-3.34-1.12-3.98-.45-.64-1.31-1.02-2.57-1.16-2.4-.26-6.04-.39-10.9-.39-.53,0-.79.18-.79.55v17.08c0,2.43,1.58,3.92,4.75,4.46.79.13,3.53.2,8.22.2,7.3,0,11.86-2.27,13.67-6.81.44-1.07,1.16-1.42,2.15-1.06.94.21,1.3.69,1.1,1.45Z"/>
        <path class="st7" d="M2656.92,699.85c0,.65-.79,1.19-2.37,1.61-3.52.89-5.28,2.7-5.28,5.44v28.16c0,5.93.09,10.71.26,14.34.06,1.38-.31,2.17-1.1,2.35-1.32.29-2.43-.33-3.34-1.84-1.47-2.48-7.21-8.59-17.23-18.33-8.38-8.12-16.5-15.71-24.36-22.76-.26-.24-.53-.3-.79-.2-.29.13-.44.43-.44.9v32.12c0,3.45,1.95,5.5,5.85,6.15,1.61.29,2.42.8,2.42,1.53,0,.99-.91,1.45-2.73,1.37-6.98-.26-12.4-.26-16.27,0-1.26.08-1.89-.38-1.89-1.37,0-.55.63-.94,1.89-1.18,2.26-.47,3.77-1.11,4.53-1.92.76-.81,1.14-2.18,1.14-4.11v-34.66c0-1.51-.35-2.68-1.06-3.49-.67-.73-1.98-1.49-3.91-2.27-1.44-.6-2.13-1.21-2.07-1.84.09-.71.75-.98,1.98-.82,3.81.47,7.11.57,9.89.31,1.44-.13,2.73.35,3.87,1.45l36.84,34.98c.5.5.84.74,1.01.74.23,0,.35-.35.35-1.06v-28.32c0-3.32-1.95-5.27-5.85-5.88-1.38-.21-2.07-.57-2.07-1.1,0-1.1.63-1.58,1.89-1.45,4.81.47,10.17.42,16.09-.16,1.03-.1,1.69-.12,1.98-.04.5.13.75.57.75,1.33Z"/>
        <path class="st7" d="M2729.77,727.27c0,.84-.69,1.35-2.07,1.53-1.93.26-3.06.44-3.39.55-1.06.39-1.58,1.15-1.58,2.27v12.26c0,1.54-2.26,3.19-6.77,4.94-5.07,1.96-10.77,2.94-17.1,2.94-9.2,0-16.87-2.44-22.99-7.32-6.21-4.96-9.32-11.32-9.32-19.07s3.21-14.49,9.63-19.74c6.21-5.07,13.69-7.6,22.42-7.6,6.71,0,12.41.72,17.1,2.15,3.46,1.04,5.26,2.09,5.41,3.13.29,1.98.44,4.92.44,8.81,0,.86-.6,1.32-1.8,1.37-1.41.05-2.27-.3-2.59-1.06-1.61-3.89-3.88-6.69-6.79-8.4-2.92-1.71-6.92-2.57-12.02-2.57-7.03,0-12.53,1.92-16.49,5.76-4.07,4-6.11,9.71-6.11,17.16s2.34,12.96,7.03,17.35c4.54,4.28,10.39,6.42,17.54,6.42,3.66,0,7.08-.59,10.24-1.76,3.02-1.12,4.53-2.26,4.53-3.41v-8.15c0-1.93-.44-3.33-1.32-4.19-.76-.78-2.27-1.48-4.53-2.08-1.67-.44-2.46-.98-2.37-1.61.12-.68.31-1.1.59-1.25.28-.16.99-.17,2.13-.04,6.24.68,12.31.73,18.2.16.32-.03.59-.04.79-.04.79,0,1.19.5,1.19,1.49Z"/>
        <path class="st7" d="M2782.57,740.82c-1,3.34-1.5,6.48-1.5,9.4,0,.5-.94.71-2.81.63-4.63-.21-10.36-.31-17.19-.31-7.27,0-13.75.13-19.43.39-.85.05-1.38,0-1.58-.18-.21-.17-.31-.57-.31-1.19,0-.68.63-1.07,1.89-1.17,2.87-.26,4.31-1.63,4.31-4.11v-36.15c0-1.83-.28-3.19-.84-4.07-.67-1.04-1.96-1.85-3.87-2.43-1.14-.37-1.64-.95-1.5-1.76.09-.57.28-.91.57-1.02.29-.1,1.06-.09,2.29.04,4.28.42,9.38.39,15.3-.08,1.06-.08,1.66-.1,1.8-.08.59.08.92.43,1.01,1.06.09.71-.1,1.19-.57,1.45-.18.1-.78.26-1.8.47-2.05.42-3.34.9-3.87,1.43-.53.54-.79,1.66-.79,3.39v35.06c0,2.19.83,3.69,2.48,4.48,1.66.8,4.67,1.19,9.04,1.19s7.25-.48,9.25-1.43c2.01-.95,3.64-2.75,4.9-5.39.47-1.04,1.19-1.4,2.15-1.06.94.21,1.29.69,1.06,1.45Z"/>
        <path class="st7" d="M2814.67,699.93c0,.65-.79,1.19-2.37,1.61-3.55.94-5.32,2.17-5.32,3.68v38.11c0,2.45,1.63,3.94,4.88,4.46,1.61.26,2.42.77,2.42,1.53,0,.65-.14,1.06-.42,1.21-.28.16-1.03.21-2.26.16-7.74-.29-13.72-.29-17.94,0-1.08.08-1.71-.1-1.89-.55-.06-.18-.09-.46-.09-.82,0-.52.66-.91,1.98-1.18,2.46-.5,3.88-.85,4.26-1.06.94-.52,1.41-1.59,1.41-3.21v-38.42c0-2.17-1.64-3.5-4.92-4-1.38-.21-2.07-.59-2.07-1.14,0-.76.11-1.22.33-1.39.22-.17.74-.22,1.56-.14,5.72.55,11.62.5,17.72-.16,1.14-.13,1.82-.17,2.02-.12.47.13.7.6.7,1.41Z"/>
        <path class="st7" d="M2866.06,736.98c0,4.41-1.82,7.95-5.45,10.61-3.78,2.77-8.95,4.15-15.52,4.15-8.65,0-13.72-1.42-15.21-4.27-.91-1.72-1.82-3.92-2.73-6.58-.38-1.23-.1-2.02.84-2.39,1.17-.47,2.1-.26,2.77.63,2.49,3.29,5,5.63,7.52,7.01,2.43,1.33,5.28,2,8.53,2,8.15,0,12.22-2.9,12.22-8.7,0-2.27-.89-4.2-2.68-5.8-1.73-1.49-5.31-3.54-10.73-6.15-6.86-3.29-11.37-5.88-13.54-7.76-2.67-2.32-4-5.2-4-8.62,0-3.63,1.71-6.72,5.12-9.28,3.41-2.56,7.77-3.84,13.08-3.84,3.75,0,7.4.42,10.95,1.25,2.73.65,4.26,1.49,4.62,2.51.73,2.11,1.22,4.73,1.45,7.83.06,1.12-.37,1.75-1.27,1.88-1.14.16-1.95-.2-2.42-1.06-1.82-3.26-3.88-5.56-6.2-6.89-2.14-1.23-4.94-1.84-8.4-1.84-3.08,0-5.51.64-7.3,1.92-1.79,1.28-2.68,3.09-2.68,5.44,0,2.19.88,4.09,2.64,5.68,1.67,1.49,4.75,3.24,9.23,5.25,6.92,3.08,11.68,5.69,14.29,7.83,3.25,2.64,4.88,5.69,4.88,9.17Z"/>
        <path class="st7" d="M2945.95,749.55c0,.68-.1,1.1-.29,1.25-.19.16-.73.2-1.6.12-5.75-.44-11.53-.55-17.37-.31-1.14.05-1.87,0-2.18-.18-.31-.17-.46-.57-.46-1.19,0-.83.78-1.34,2.33-1.53,2.46-.29,3.69-1.46,3.69-3.52v-15.39c0-1.12-.15-1.87-.44-2.25-.29-.38-.98-.57-2.07-.57h-31.08c-1.29,0-2.09.14-2.4.43-.31.29-.46,1.03-.46,2.23v15.55c0,1.49,1.83,2.66,5.5,3.52,1.61.39,2.42.9,2.42,1.53s-.13,1.06-.4,1.21c-.26.16-1,.21-2.2.16-5.83-.23-11.62-.13-17.37.31-.88.08-1.41.04-1.6-.12-.19-.16-.29-.57-.29-1.25s.63-1.07,1.89-1.17c2.87-.26,4.31-1.66,4.31-4.19v-37.6c0-2.43-1.63-3.96-4.88-4.58-1.17-.23-1.87-.41-2.09-.53s-.33-.4-.33-.84c0-.34.03-.59.09-.74.18-.5,1.04-.71,2.59-.63,7.42.37,13.39.37,17.94,0,.82-.05,1.36,0,1.6.16s.37.56.37,1.21c0,.5-.66.88-1.98,1.14-2.35.44-3.75.8-4.22,1.06-.91.52-1.36,1.58-1.36,3.17v13.24c0,1.83,1,2.74,2.99,2.74h30.6c1.2,0,1.95-.12,2.24-.35.41-.34.62-1.19.62-2.55v-13.47c0-1.41-.41-2.35-1.23-2.82-.47-.29-1.7-.6-3.69-.94-1.64-.29-2.46-.74-2.46-1.37,0-.71.15-1.15.44-1.33.29-.18,1.06-.22,2.29-.12,3.25.29,6.59.35,10.02.2,2.43-.1,4.88-.22,7.34-.35.82,0,1.34.07,1.56.2.22.13.33.55.33,1.25s-.63,1.08-1.89,1.21c-3.23.31-4.84,1.67-4.84,4.07v38.58c0,1.28.51,2.22,1.54,2.82.82.47,2.34.93,4.57,1.37,1.26.23,1.89.63,1.89,1.17Z"/>
      </g>
      <g>
        <path class="st7" d="M2561.64,817.4c-.18.71-.37,1.12-.57,1.25-.18.1-.59.08-1.23-.08-4.19-.68-10.32-.76-18.38-.23-1.52.1-2.36-.16-2.51-.78-.15-.73.34-1.29,1.45-1.68,3.17-1.15,4.75-2.22,4.75-3.21,0-.39-.18-.95-.53-1.68-2.17-4.62-3.97-8.34-5.41-11.16-2.08.1-5.75.16-10.99.16-4.34,0-8.03-.1-11.08-.31-1.03,2.25-2.46,5.38-4.31,9.4-.41.91-.62,1.74-.62,2.47,0,1.46.89,2.53,2.68,3.21,2.75,1.04,4.1,1.84,4.04,2.39-.06.89-.98,1.24-2.77,1.06-5.51-.52-10.61-.37-15.3.47-1.23.23-1.92-.16-2.07-1.18-.12-.68.84-1.41,2.86-2.19,2.17-.81,4-2.68,5.5-5.6,5.72-11.05,9.41-18.3,11.08-21.78,4.04-8.33,6.9-15.13,8.57-20.41.23-.81,1.39-1.57,3.47-2.27.5-.16,1.13.6,1.89,2.27,6.33,13.58,13.42,28.1,21.28,43.56,1.26,2.45,3.39,4.09,6.38,4.9,1.35.34,1.95.82,1.8,1.45ZM2537.76,796.76c-1.93-3.92-4.95-9.99-9.06-18.21-.24-.44-.5-.67-.79-.67s-.54.22-.75.67l-8.4,18.06c3.14.21,6.65.31,10.55.31,2.4,0,5.22-.05,8.44-.16Z"/>
        <path class="st7" d="M2625.78,805.42c-.38,3.47-1.01,6.28-1.89,8.42-.59,1.38-2.84,2.62-6.77,3.72-4.28,1.17-9.2,1.76-14.77,1.76-9.2,0-16.87-2.44-22.99-7.32-6.21-4.96-9.32-11.32-9.32-19.07s3.21-14.49,9.63-19.74c6.18-5.07,13.66-7.6,22.42-7.6,6.21,0,11.43.67,15.65,2,3.75,1.17,5.7,2.27,5.85,3.29.32,1.98.48,5.21.48,9.67,0,.73-.75,1.16-2.24,1.29-1.14.1-1.85-.21-2.11-.94-1.55-4.46-3.63-7.56-6.22-9.28-2.59-1.72-6.48-2.58-11.67-2.58-6.51,0-11.81,1.92-15.92,5.76-4.46,4.18-6.68,9.9-6.68,17.16s2.34,13.03,7.03,17.47c4.57,4.36,10.42,6.54,17.54,6.54,4.63,0,8.28-.89,10.95-2.66,2.55-1.7,4.63-4.48,6.24-8.34.47-1.12,1.52-1.53,3.17-1.21,1.17.24,1.71.8,1.63,1.68Z"/>
        <path class="st7" d="M2697.8,817.4c-.18.71-.37,1.12-.57,1.25-.18.1-.59.08-1.23-.08-4.19-.68-10.32-.76-18.38-.23-1.52.1-2.36-.16-2.51-.78-.15-.73.34-1.29,1.45-1.68,3.17-1.15,4.75-2.22,4.75-3.21,0-.39-.18-.95-.53-1.68-2.17-4.62-3.97-8.34-5.41-11.16-2.08.1-5.75.16-10.99.16-4.34,0-8.03-.1-11.08-.31-1.03,2.25-2.46,5.38-4.31,9.4-.41.91-.62,1.74-.62,2.47,0,1.46.89,2.53,2.68,3.21,2.75,1.04,4.1,1.84,4.04,2.39-.06.89-.98,1.24-2.77,1.06-5.51-.52-10.61-.37-15.3.47-1.23.23-1.92-.16-2.07-1.18-.12-.68.84-1.41,2.86-2.19,2.17-.81,4-2.68,5.5-5.6,5.72-11.05,9.41-18.3,11.08-21.78,4.04-8.33,6.9-15.13,8.57-20.41.23-.81,1.39-1.57,3.47-2.27.5-.16,1.13.6,1.89,2.27,6.33,13.58,13.42,28.1,21.28,43.56,1.26,2.45,3.39,4.09,6.38,4.9,1.35.34,1.95.82,1.8,1.45ZM2673.93,796.76c-1.93-3.92-4.95-9.99-9.06-18.21-.24-.44-.5-.67-.79-.67s-.54.22-.75.67l-8.4,18.06c3.14.21,6.65.31,10.55.31,2.4,0,5.22-.05,8.44-.16Z"/>
        <path class="st7" d="M2767.62,791.47c0,9.09-3.37,15.98-10.11,20.68-6.3,4.33-15.07,6.5-26.29,6.5-.94,0-3.06-.08-6.38-.24-3.31-.16-5.86-.23-7.65-.23-2.4,0-5.07.1-8,.31-1.26.1-1.89-.35-1.89-1.37,0-.68.63-1.07,1.89-1.17,2.87-.26,4.31-1.66,4.31-4.19v-37.52c0-1.41-.32-2.36-.97-2.86-.53-.39-1.69-.76-3.47-1.1-1.49-.26-2.4-.48-2.73-.67-.32-.18-.51-.57-.57-1.17-.09-.63.22-1.03.92-1.21.15-.03.79-.08,1.93-.16,6.3-.37,14.66-.55,25.06-.55s18.25,2.17,24.4,6.5c6.36,4.49,9.54,10.64,9.54,18.45ZM2758.43,792.53c0-15.15-8.73-22.72-26.2-22.72h-6.16c-3.22.26-4.84,1.06-4.84,2.39v36.35c0,2.56.76,4.27,2.29,5.13,1.52.86,4.57,1.29,9.15,1.29,17.18,0,25.76-7.48,25.76-22.44Z"/>
        <path class="st7" d="M2823.55,808.39c-.82,3.11-1.36,6.24-1.63,9.4-.03.5-.92.71-2.68.63-4.57-.21-10.41-.31-17.5-.31-7.8,0-14.51.13-20.14.39-1.26.05-1.89-.4-1.89-1.37,0-.68.63-1.07,1.89-1.17,1.76-.18,2.89-.48,3.39-.9.62-.52.92-1.62.92-3.29v-36.07c0-2.43-.25-3.96-.75-4.6-.5-.64-1.88-1.27-4.13-1.9-1.2-.34-1.64-.98-1.32-1.92.15-.5.38-.77.7-.82.29-.08,1.07-.03,2.33.16,1.88.26,6.77.39,14.69.39s14.67-.16,20.36-.47c1.9-.1,2.86.01,2.86.35,0,.13-.03.26-.09.39-.62,2.56-.88,5.5-.79,8.81.03.81-.4,1.21-1.27,1.21-.82,0-1.39-.35-1.71-1.06-.82-1.83-1.54-3.07-2.15-3.72-.94-.99-2.29-1.62-4.04-1.88-1.41-.24-6.36-.35-14.86-.35-.97,0-1.58.14-1.85.43-.15.16-.22.55-.22,1.18v16.37c0,.65.42.98,1.27.98,2.7-.05,6.57-.22,11.61-.51.88-.08,1.52-.46,1.93-1.14.32-.52.66-1.61,1.01-3.25.26-1.12.95-1.53,2.07-1.21,1,.16,1.42.56,1.27,1.21-.82,3.55-1.08,8.17-.79,13.87.03.63-.45,1.01-1.45,1.14-.88.1-1.39-.33-1.54-1.29-.29-2.01-.67-3.34-1.12-3.98-.45-.64-1.31-1.02-2.57-1.16-2.4-.26-6.04-.39-10.9-.39-.53,0-.79.18-.79.55v17.08c0,2.43,1.58,3.92,4.75,4.46.79.13,3.53.2,8.22.2,7.3,0,11.86-2.27,13.67-6.81.44-1.07,1.16-1.42,2.15-1.06.94.21,1.3.69,1.1,1.45Z"/>
        <path class="st7" d="M2910.55,816.89c0,.65-.15,1.06-.46,1.21-.31.16-1.09.21-2.35.16-7.65-.29-13.59-.29-17.81,0-1.32.08-1.98-.38-1.98-1.37,0-.55.66-.94,1.98-1.18,2.61-.52,4.18-.95,4.7-1.29.64-.44.94-1.44.88-2.98l-1.54-33.45c-.03-.68-.23-1.02-.62-1.02-.29,0-.57.23-.84.71-5.22,9.35-8.88,15.99-10.99,19.94-4.25,7.86-7.25,13.83-9.01,17.9-.79,1.91-1.2,2.89-1.23,2.94-.29.47-.72.78-1.27.94-.29.08-.54.12-.75.12-.59,0-1.11-.77-1.58-2.31-1.85-5.9-8.21-19-19.08-39.29-.32-.6-.67-.9-1.06-.9-.47,0-.72.41-.75,1.21-.41,7.75-.89,18.08-1.45,30.98-.18,3.45,1.77,5.5,5.85,6.15,1.61.26,2.42.77,2.42,1.53,0,.65-.15,1.06-.46,1.21-.31.16-1.08.21-2.31.16-6.74-.23-11.97-.23-15.7,0-1.32.08-1.98-.38-1.98-1.37,0-.55.66-.94,1.98-1.18,2.34-.44,3.88-1.14,4.62-2.08.59-.73.91-2.05.97-3.96l1.54-34.66c.06-1.51-.28-2.68-1.01-3.49-.65-.71-1.95-1.46-3.91-2.27-1.41-.57-2.07-1.19-1.98-1.84.06-.71.69-.98,1.89-.82,4.48.57,8.41.68,11.78.31,1.29-.13,2.17-.1,2.64.08.47.18.88.64,1.23,1.37l18.38,37.48c.23.52.44.78.62.78s.44-.35.79-1.06c1.17-2.25,7.72-14.35,19.65-36.31.73-1.33,1.66-2,2.77-2,2.73,0,6.54-.35,11.43-1.06,1.11-.16,1.8-.21,2.07-.16.5.13.75.61.75,1.45,0,.63-.78,1.16-2.33,1.61-3.66,1.02-5.47,2.25-5.41,3.68l1.63,38.11c.06,1.51.48,2.58,1.28,3.21.64.55,1.83.97,3.56,1.25,1.64.29,2.46.8,2.46,1.53Z"/>
        <path class="st7" d="M2982.4,767.66c0,.89-.94,1.58-2.81,2.08-2.14.57-4.51,2.36-7.12,5.37-5.13,5.95-8.32,9.69-9.58,11.2-2.96,3.6-5.55,7.04-7.78,10.3v13.87c0,1.85.4,3.12,1.19,3.8.64.52,2.14,1.03,4.48,1.53,1.76.34,2.54.98,2.33,1.92-.12.6-.47.93-1.06.98-.06.03-.66-.01-1.8-.12-5.83-.44-11.56-.47-17.19-.08-1.76.29-2.73-.03-2.9-.94-.18-.86.34-1.42,1.54-1.68,2.4-.57,3.96-1.27,4.68-2.1.72-.82,1.08-2.29,1.08-4.41v-10.69c-3.99-6.95-10.6-15.26-19.83-24.95-2.37-2.48-4.78-3.94-7.21-4.39-1.44-.26-2.15-.64-2.15-1.14,0-1.2.63-1.74,1.89-1.61,5.31.57,11.77.34,19.39-.71,1.06-.16,1.71-.21,1.98-.16.47.13.7.57.7,1.33,0,.57-.75,1.11-2.24,1.61-2.55.86-3.83,1.79-3.83,2.78,0,.5.31,1.12.92,1.88,3.72,4.44,8.59,10.81,14.6,19.11.35.47.63.71.84.71.23,0,.53-.23.88-.71,1.29-1.72,3.5-4.54,6.62-8.46,3.12-3.92,5.44-6.91,6.97-8.97.76-.99,1.14-1.85,1.14-2.58,0-1.38-1.33-2.47-4-3.25-1.44-.44-2.1-1.06-1.98-1.84.12-.91,1.1-1.27,2.95-1.06,5.77.63,10.92.68,15.43.16,1.26-.13,1.89.27,1.89,1.21Z"/>
      </g>
    </g>
    <g>
      <g>
        <line class="st7" x1="2496.54" y1="835.88" x2="2983.46" y2="835.88"/>
        <path class="st7" d="M2496.54,835.88c156.16-2.69,315.51-2.62,471.7-.3,0,0,15.22.3,15.22.3l-15.22.3c-156.19,2.31-315.53,2.38-471.7-.3h0Z"/>
      </g>
      <g>
        <line class="st7" x1="2420.56" y1="681.65" x2="3059.44" y2="681.65"/>
        <path class="st7" d="M2420.56,681.65c204.91-2.69,413.98-2.62,618.92-.3,0,0,19.97.3,19.97.3l-19.97.3c-204.94,2.31-414,2.38-618.92-.3h0Z"/>
      </g>
    </g>
  </g>
  <path class="st6" d="M2638.51,844.17c25.47,15.36,51.03,30.19,77.14,44.28,7.51,3.97,14.97,8.15,22.83,11.29.86.34,2.1.74,2.79.83-.09-.01-.21.02-.26.04.64-.18,1.2-.43,1.89-.73,5.46-2.51,10.88-5.82,16.28-8.52,28.72-14.41,56.36-30.51,83.89-47.18-25.85,21.3-54.33,39.38-83.97,54.95-5.22,2.82-10.31,6.11-15.94,8.15-.84.27-1.87.38-2.74.24-5.33-1-10.05-3.77-14.84-6.08-30.64-16.43-60.06-35.34-87.06-57.25h0Z"/>
  <path class="st16" d="M753.3,1494.41c-28.98-.61-59.65-3.31-88.61-1.58-20.89,1.24-41.35,5-54.34,22.86-4.72,6.49-6.39,16.55-12.94,21.1l18.36-54.28,187.47.53-217.95,229.33c69.22,28.48,159.4,63.5,230.54,22.43,33.17-19.14,58.11-59.08,48.8-98.17-1.65-6.91-5.31-11.92-7.77-17.97-.9-2.21-.92-4.41,1.62-3.14,6.38,3.17,12.45,26.72,12.95,33.98,4.15,59.91-52.82,103.03-105.71,115.42-69.9,16.38-137.3-8.08-199.15-38.68-22.91,18.97-50.13,33.57-79.37,40.19-5.88,1.33-31.6,6.05-35.61,4.76-1.98-.64-2.95-2.23-2.53-4.3,32.41-1.93,61.57-18.55,85.48-39.4,2.11-1.84,12.59-10.42,11.39-12.05l-113.05-60.33c-19.53,17.12-39.45,33.66-62.51,45.96-31.85,17-77.81,31.28-113.93,24.55-55.98-10.43-64.74-67.63-17.67-97.12,54.09-33.9,133.09-11.72,188.18,9.52,22.01-25.55,40.43-53.86,58.41-82.33l-2.25-2.26c-52.49,20.01-112.63,35.5-166.78,12.4-56.82-24.23-75.64-86.54-43.5-139.41,43.34-71.31,161.6-79.07,223.14-28.1.63,3.03-1.31,2.71-3.45,1.93-5.63-2.03-15.3-10.17-22.76-13.57-48.69-22.23-107.96-20.4-152.86,9.63-56.33,37.67-74.21,119.42-9.06,158.36,55.32,33.07,128.93,12.37,184.33-10.33,43.28-71.39,93.23-170.94,168.78-212.67,67.99-37.55,79.38,9.62,44.89,61.54-30.82,46.38-90.33,92.53-138.25,120.6-9.48,5.56-35.46,16.55-41.4,22.17-10.07,9.53-28.14,42.8-38.68,56.68-13.59,17.91-28.54,35-44.47,50.87l117.94,56.13,192.33-205.22ZM532.31,1526.18c26.48-12.88,52.4-28.29,76.16-45.67,34.36-25.13,106.08-91.1,108.57-135.13.94-16.71-2.47-22.76-20.37-20.37-29.23,3.89-69.31,54.2-85.98,77.49-28.18,39.36-52.23,82.91-78.38,123.69ZM417.27,1647.3c-51.56-19.72-125.09-44.97-176.1-11.88-41.65,27.01-29.85,80.59,20.89,84.58,50.99,4.01,103.6-21.14,140.09-55.28,2.24-2.1,16.74-15.61,15.12-17.42Z"/>
  <path class="st28" d="M827.09,1711.5c3.45-15.89,5.64-32.1,5.63-48.21l-1.38-48.84c-.76-32.55-1.64-65.1-2.18-97.63-1.28-61.15-2.26-134.01-2.91-195.17,0,0,5.71,7.54,5.71,7.54-16.6-4.38-37.09-9.4-53.83-13.1-8.23-1.83-18.81-3.82-27.14-5.53-116.29-22.27-236.25-26.03-353.78-11.83-50.5,5.99-100.27,16.79-149.54,29.43,0,0,4.96-6.45,4.96-6.45l-.54,36.19c-1.48,83.68-3.2,169.74-6.26,253.3-.89-24.12-1.61-48.25-2.26-72.37-1.31-46.4-2.34-98.27-3.15-144.75-.21-18.03-1.03-54.34-1.16-72.37,0,0-.07-5.03-.07-5.03l5.03-1.43c53.9-15.48,108.99-28.34,164.82-34.69,105.34-13.13,213.08-10.26,317.62,8.1,38.78,6.76,77.56,16.15,115.33,27.07-.22,27.23-.79,76.34-1.12,103.59-1.15,79.64-2.61,164.5-4.92,244.06-.87,16.3-4.27,32.49-8.86,48.12h0Z"/>
  <g class="st53">
    <g>
      <g>
        <path class="st5" d="M379.18,1840.82c-.82,3.11-1.36,6.24-1.63,9.4-.03.5-.92.71-2.68.63-4.57-.21-10.41-.31-17.5-.31-7.8,0-14.51.13-20.14.39-1.26.05-1.89-.4-1.89-1.37,0-.68.63-1.07,1.89-1.17,1.76-.18,2.89-.48,3.39-.9.62-.52.92-1.62.92-3.29v-36.07c0-2.43-.25-3.96-.75-4.6-.5-.64-1.88-1.27-4.13-1.9-1.2-.34-1.64-.98-1.32-1.92.15-.5.38-.77.7-.82.29-.08,1.07-.03,2.33.16,1.88.26,6.77.39,14.69.39s14.67-.16,20.36-.47c1.9-.1,2.86.01,2.86.35,0,.13-.03.26-.09.39-.62,2.56-.88,5.5-.79,8.81.03.81-.4,1.21-1.27,1.21-.82,0-1.39-.35-1.71-1.06-.82-1.83-1.54-3.07-2.15-3.72-.94-.99-2.29-1.62-4.04-1.88-1.41-.24-6.36-.35-14.86-.35-.97,0-1.58.14-1.85.43-.15.16-.22.55-.22,1.18v16.37c0,.65.42.98,1.27.98,2.7-.05,6.57-.22,11.61-.51.88-.08,1.52-.46,1.93-1.14.32-.52.66-1.61,1.01-3.25.26-1.12.95-1.53,2.07-1.21,1,.16,1.42.56,1.27,1.21-.82,3.55-1.08,8.17-.79,13.87.03.63-.45,1.01-1.45,1.14-.88.1-1.39-.33-1.54-1.29-.29-2.01-.67-3.34-1.12-3.98-.45-.64-1.31-1.02-2.57-1.16-2.4-.26-6.04-.39-10.9-.39-.53,0-.79.18-.79.55v17.08c0,2.43,1.58,3.92,4.75,4.46.79.13,3.53.2,8.22.2,7.3,0,11.86-2.27,13.67-6.81.44-1.07,1.16-1.42,2.15-1.06.94.21,1.3.69,1.1,1.45Z"/>
        <path class="st49" d="M456.92,1799.85c0,.65-.79,1.19-2.37,1.61-3.52.89-5.28,2.7-5.28,5.44v28.16c0,5.93.09,10.71.26,14.34.06,1.38-.31,2.17-1.1,2.35-1.32.29-2.43-.33-3.34-1.84-1.47-2.48-7.21-8.59-17.23-18.33-8.38-8.12-16.5-15.71-24.36-22.76-.26-.24-.53-.3-.79-.2-.29.13-.44.43-.44.9v32.12c0,3.45,1.95,5.5,5.85,6.15,1.61.29,2.42.8,2.42,1.53,0,.99-.91,1.45-2.73,1.37-6.98-.26-12.4-.26-16.27,0-1.26.08-1.89-.38-1.89-1.37,0-.55.63-.94,1.89-1.18,2.26-.47,3.77-1.11,4.53-1.92.76-.81,1.14-2.18,1.14-4.11v-34.66c0-1.51-.35-2.68-1.06-3.49-.67-.73-1.98-1.49-3.91-2.27-1.44-.6-2.13-1.21-2.07-1.84.09-.71.75-.98,1.98-.82,3.81.47,7.11.57,9.89.31,1.44-.13,2.73.35,3.87,1.45l36.84,34.98c.5.5.84.74,1.01.74.23,0,.35-.35.35-1.06v-28.32c0-3.32-1.95-5.27-5.85-5.88-1.38-.21-2.07-.57-2.07-1.1,0-1.1.63-1.58,1.89-1.45,4.81.47,10.17.42,16.09-.16,1.03-.1,1.69-.12,1.98-.04.5.13.75.57.75,1.33Z"/>
        <path class="st34" d="M529.77,1827.27c0,.84-.69,1.35-2.07,1.53-1.93.26-3.06.44-3.39.55-1.06.39-1.58,1.15-1.58,2.27v12.26c0,1.54-2.26,3.19-6.77,4.94-5.07,1.96-10.77,2.94-17.1,2.94-9.2,0-16.87-2.44-22.99-7.32-6.21-4.96-9.32-11.32-9.32-19.07s3.21-14.49,9.63-19.74c6.21-5.07,13.69-7.6,22.42-7.6,6.71,0,12.41.72,17.1,2.15,3.46,1.04,5.26,2.09,5.41,3.13.29,1.98.44,4.92.44,8.81,0,.86-.6,1.32-1.8,1.37-1.41.05-2.27-.3-2.59-1.06-1.61-3.89-3.88-6.69-6.79-8.4-2.92-1.71-6.92-2.57-12.02-2.57-7.03,0-12.53,1.92-16.49,5.76-4.07,4-6.11,9.71-6.11,17.16s2.34,12.96,7.03,17.35c4.54,4.28,10.39,6.42,17.54,6.42,3.66,0,7.08-.59,10.24-1.76,3.02-1.12,4.53-2.26,4.53-3.41v-8.15c0-1.93-.44-3.33-1.32-4.19-.76-.78-2.27-1.48-4.53-2.08-1.67-.44-2.46-.98-2.37-1.61.12-.68.31-1.1.59-1.25.28-.16.99-.17,2.13-.04,6.24.68,12.31.73,18.2.16.32-.03.59-.04.79-.04.79,0,1.19.5,1.19,1.49Z"/>
        <path class="st38" d="M582.57,1840.82c-1,3.34-1.5,6.48-1.5,9.4,0,.5-.94.71-2.81.63-4.63-.21-10.36-.31-17.19-.31-7.27,0-13.75.13-19.43.39-.85.05-1.38,0-1.58-.18-.21-.17-.31-.57-.31-1.19,0-.68.63-1.07,1.89-1.17,2.87-.26,4.31-1.63,4.31-4.11v-36.15c0-1.83-.28-3.19-.84-4.07-.67-1.04-1.96-1.85-3.87-2.43-1.14-.37-1.64-.95-1.5-1.76.09-.57.28-.91.57-1.02.29-.1,1.06-.09,2.29.04,4.28.42,9.38.39,15.3-.08,1.06-.08,1.66-.1,1.8-.08.59.08.92.43,1.01,1.06.09.71-.1,1.19-.57,1.45-.18.1-.78.26-1.8.47-2.05.42-3.34.9-3.87,1.43-.53.54-.79,1.66-.79,3.39v35.06c0,2.19.83,3.69,2.48,4.48,1.66.8,4.67,1.19,9.04,1.19s7.25-.48,9.25-1.43c2.01-.95,3.64-2.75,4.9-5.39.47-1.04,1.19-1.4,2.15-1.06.94.21,1.29.69,1.06,1.45Z"/>
        <path class="st24" d="M614.67,1799.93c0,.65-.79,1.19-2.37,1.61-3.55.94-5.32,2.17-5.32,3.68v38.11c0,2.45,1.63,3.94,4.88,4.46,1.61.26,2.42.77,2.42,1.53,0,.65-.14,1.06-.42,1.21-.28.16-1.03.21-2.26.16-7.74-.29-13.72-.29-17.94,0-1.08.08-1.71-.1-1.89-.55-.06-.18-.09-.46-.09-.82,0-.52.66-.91,1.98-1.18,2.46-.5,3.88-.85,4.26-1.06.94-.52,1.41-1.59,1.41-3.21v-38.42c0-2.17-1.64-3.5-4.92-4-1.38-.21-2.07-.59-2.07-1.14,0-.76.11-1.22.33-1.39.22-.17.74-.22,1.56-.14,5.72.55,11.62.5,17.72-.16,1.14-.13,1.82-.17,2.02-.12.47.13.7.6.7,1.41Z"/>
        <path class="st13" d="M666.06,1836.98c0,4.41-1.82,7.95-5.45,10.61-3.78,2.77-8.95,4.15-15.52,4.15-8.65,0-13.72-1.42-15.21-4.27-.91-1.72-1.82-3.92-2.73-6.58-.38-1.23-.1-2.02.84-2.39,1.17-.47,2.1-.26,2.77.63,2.49,3.29,5,5.63,7.52,7.01,2.43,1.33,5.28,2,8.53,2,8.15,0,12.22-2.9,12.22-8.7,0-2.27-.89-4.2-2.68-5.8-1.73-1.49-5.31-3.54-10.73-6.15-6.86-3.29-11.37-5.88-13.54-7.76-2.67-2.32-4-5.2-4-8.62,0-3.63,1.71-6.72,5.12-9.28,3.41-2.56,7.77-3.84,13.08-3.84,3.75,0,7.4.42,10.95,1.25,2.73.65,4.26,1.49,4.62,2.51.73,2.11,1.22,4.73,1.45,7.83.06,1.12-.37,1.75-1.27,1.88-1.14.16-1.95-.2-2.42-1.06-1.82-3.26-3.88-5.56-6.2-6.89-2.14-1.23-4.94-1.84-8.4-1.84-3.08,0-5.51.64-7.3,1.92-1.79,1.28-2.68,3.09-2.68,5.44,0,2.19.88,4.09,2.64,5.68,1.67,1.49,4.75,3.24,9.23,5.25,6.92,3.08,11.68,5.69,14.29,7.83,3.25,2.64,4.88,5.69,4.88,9.17Z"/>
        <path class="st18" d="M745.95,1849.55c0,.68-.1,1.1-.29,1.25-.19.16-.73.2-1.6.12-5.75-.44-11.53-.55-17.37-.31-1.14.05-1.87,0-2.18-.18-.31-.17-.46-.57-.46-1.19,0-.83.78-1.34,2.33-1.53,2.46-.29,3.69-1.46,3.69-3.52v-15.39c0-1.12-.15-1.87-.44-2.25-.29-.38-.98-.57-2.07-.57h-31.08c-1.29,0-2.09.14-2.4.43-.31.29-.46,1.03-.46,2.23v15.55c0,1.49,1.83,2.66,5.5,3.52,1.61.39,2.42.9,2.42,1.53s-.13,1.06-.4,1.21c-.26.16-1,.21-2.2.16-5.83-.23-11.62-.13-17.37.31-.88.08-1.41.04-1.6-.12-.19-.16-.29-.57-.29-1.25s.63-1.07,1.89-1.17c2.87-.26,4.31-1.66,4.31-4.19v-37.6c0-2.43-1.63-3.96-4.88-4.58-1.17-.23-1.87-.41-2.09-.53s-.33-.4-.33-.84c0-.34.03-.59.09-.74.18-.5,1.04-.71,2.59-.63,7.42.37,13.39.37,17.94,0,.82-.05,1.36,0,1.6.16s.37.56.37,1.21c0,.5-.66.88-1.98,1.14-2.35.44-3.75.8-4.22,1.06-.91.52-1.36,1.58-1.36,3.17v13.24c0,1.83,1,2.74,2.99,2.74h30.6c1.2,0,1.95-.12,2.24-.35.41-.34.62-1.19.62-2.55v-13.47c0-1.41-.41-2.35-1.23-2.82-.47-.29-1.7-.6-3.69-.94-1.64-.29-2.46-.74-2.46-1.37,0-.71.15-1.15.44-1.33.29-.18,1.06-.22,2.29-.12,3.25.29,6.59.35,10.02.2,2.43-.1,4.88-.22,7.34-.35.82,0,1.34.07,1.56.2.22.13.33.55.33,1.25s-.63,1.08-1.89,1.21c-3.23.31-4.84,1.67-4.84,4.07v38.58c0,1.28.51,2.22,1.54,2.82.82.47,2.34.93,4.57,1.37,1.26.23,1.89.63,1.89,1.17Z"/>
      </g>
      <g>
        <path class="st27" d="M361.64,1917.4c-.18.71-.37,1.12-.57,1.25-.18.1-.59.08-1.23-.08-4.19-.68-10.32-.76-18.38-.23-1.52.1-2.36-.16-2.51-.78-.15-.73.34-1.29,1.45-1.68,3.17-1.15,4.75-2.22,4.75-3.21,0-.39-.18-.95-.53-1.68-2.17-4.62-3.97-8.34-5.41-11.16-2.08.1-5.75.16-10.99.16-4.34,0-8.03-.1-11.08-.31-1.03,2.25-2.46,5.38-4.31,9.4-.41.91-.62,1.74-.62,2.47,0,1.46.89,2.53,2.68,3.21,2.75,1.04,4.1,1.84,4.04,2.39-.06.89-.98,1.24-2.77,1.06-5.51-.52-10.61-.37-15.3.47-1.23.23-1.92-.16-2.07-1.18-.12-.68.84-1.41,2.86-2.19,2.17-.81,4-2.68,5.5-5.6,5.72-11.05,9.41-18.3,11.08-21.78,4.04-8.33,6.9-15.13,8.57-20.41.23-.81,1.39-1.57,3.47-2.27.5-.16,1.13.6,1.89,2.27,6.33,13.58,13.42,28.1,21.28,43.56,1.26,2.45,3.39,4.09,6.38,4.9,1.35.34,1.95.82,1.8,1.45ZM337.76,1896.76c-1.93-3.92-4.95-9.99-9.06-18.21-.24-.44-.5-.67-.79-.67s-.54.22-.75.67l-8.4,18.06c3.14.21,6.65.31,10.55.31,2.4,0,5.22-.05,8.44-.16Z"/>
        <path class="st25" d="M425.78,1905.42c-.38,3.47-1.01,6.28-1.89,8.42-.59,1.38-2.84,2.62-6.77,3.72-4.28,1.17-9.2,1.76-14.77,1.76-9.2,0-16.87-2.44-22.99-7.32-6.21-4.96-9.32-11.32-9.32-19.07s3.21-14.49,9.63-19.74c6.18-5.07,13.66-7.6,22.42-7.6,6.21,0,11.43.67,15.65,2,3.75,1.17,5.7,2.27,5.85,3.29.32,1.98.48,5.21.48,9.67,0,.73-.75,1.16-2.24,1.29-1.14.1-1.85-.21-2.11-.94-1.55-4.46-3.63-7.56-6.22-9.28-2.59-1.72-6.48-2.58-11.67-2.58-6.51,0-11.81,1.92-15.92,5.76-4.46,4.18-6.68,9.9-6.68,17.16s2.34,13.03,7.03,17.47c4.57,4.36,10.42,6.54,17.54,6.54,4.63,0,8.28-.89,10.95-2.66,2.55-1.7,4.63-4.48,6.24-8.34.47-1.12,1.52-1.53,3.17-1.21,1.17.24,1.71.8,1.63,1.68Z"/>
        <path class="st48" d="M497.8,1917.4c-.18.71-.37,1.12-.57,1.25-.18.1-.59.08-1.23-.08-4.19-.68-10.32-.76-18.38-.23-1.52.1-2.36-.16-2.51-.78-.15-.73.34-1.29,1.45-1.68,3.17-1.15,4.75-2.22,4.75-3.21,0-.39-.18-.95-.53-1.68-2.17-4.62-3.97-8.34-5.41-11.16-2.08.1-5.75.16-10.99.16-4.34,0-8.03-.1-11.08-.31-1.03,2.25-2.46,5.38-4.31,9.4-.41.91-.62,1.74-.62,2.47,0,1.46.89,2.53,2.68,3.21,2.75,1.04,4.1,1.84,4.04,2.39-.06.89-.98,1.24-2.77,1.06-5.51-.52-10.61-.37-15.3.47-1.23.23-1.92-.16-2.07-1.18-.12-.68.84-1.41,2.86-2.19,2.17-.81,4-2.68,5.5-5.6,5.72-11.05,9.41-18.3,11.08-21.78,4.04-8.33,6.9-15.13,8.57-20.41.23-.81,1.39-1.57,3.47-2.27.5-.16,1.13.6,1.89,2.27,6.33,13.58,13.42,28.1,21.28,43.56,1.26,2.45,3.39,4.09,6.38,4.9,1.35.34,1.95.82,1.8,1.45ZM473.93,1896.76c-1.93-3.92-4.95-9.99-9.06-18.21-.24-.44-.5-.67-.79-.67s-.54.22-.75.67l-8.4,18.06c3.14.21,6.65.31,10.55.31,2.4,0,5.22-.05,8.44-.16Z"/>
        <path class="st50" d="M567.62,1891.47c0,9.09-3.37,15.98-10.11,20.68-6.3,4.33-15.07,6.5-26.29,6.5-.94,0-3.06-.08-6.38-.24-3.31-.16-5.86-.23-7.65-.23-2.4,0-5.07.1-8,.31-1.26.1-1.89-.35-1.89-1.37,0-.68.63-1.07,1.89-1.17,2.87-.26,4.31-1.66,4.31-4.19v-37.52c0-1.41-.32-2.36-.97-2.86-.53-.39-1.69-.76-3.47-1.1-1.49-.26-2.4-.48-2.73-.67-.32-.18-.51-.57-.57-1.17-.09-.63.22-1.03.92-1.21.15-.03.79-.08,1.93-.16,6.3-.37,14.66-.55,25.06-.55s18.25,2.17,24.4,6.5c6.36,4.49,9.54,10.64,9.54,18.45ZM558.43,1892.53c0-15.15-8.73-22.72-26.2-22.72h-6.16c-3.22.26-4.84,1.06-4.84,2.39v36.35c0,2.56.76,4.27,2.29,5.13,1.52.86,4.57,1.29,9.15,1.29,17.18,0,25.76-7.48,25.76-22.44Z"/>
        <path class="st12" d="M623.55,1908.39c-.82,3.11-1.36,6.24-1.63,9.4-.03.5-.92.71-2.68.63-4.57-.21-10.41-.31-17.5-.31-7.8,0-14.51.13-20.14.39-1.26.05-1.89-.4-1.89-1.37,0-.68.63-1.07,1.89-1.17,1.76-.18,2.89-.48,3.39-.9.62-.52.92-1.62.92-3.29v-36.07c0-2.43-.25-3.96-.75-4.6-.5-.64-1.88-1.27-4.13-1.9-1.2-.34-1.64-.98-1.32-1.92.15-.5.38-.77.7-.82.29-.08,1.07-.03,2.33.16,1.88.26,6.77.39,14.69.39s14.67-.16,20.36-.47c1.9-.1,2.86.01,2.86.35,0,.13-.03.26-.09.39-.62,2.56-.88,5.5-.79,8.81.03.81-.4,1.21-1.27,1.21-.82,0-1.39-.35-1.71-1.06-.82-1.83-1.54-3.07-2.15-3.72-.94-.99-2.29-1.62-4.04-1.88-1.41-.24-6.36-.35-14.86-.35-.97,0-1.58.14-1.85.43-.15.16-.22.55-.22,1.18v16.37c0,.65.42.98,1.27.98,2.7-.05,6.57-.22,11.61-.51.88-.08,1.52-.46,1.93-1.14.32-.52.66-1.61,1.01-3.25.26-1.12.95-1.53,2.07-1.21,1,.16,1.42.56,1.27,1.21-.82,3.55-1.08,8.17-.79,13.87.03.63-.45,1.01-1.45,1.14-.88.1-1.39-.33-1.54-1.29-.29-2.01-.67-3.34-1.12-3.98-.45-.64-1.31-1.02-2.57-1.16-2.4-.26-6.04-.39-10.9-.39-.53,0-.79.18-.79.55v17.08c0,2.43,1.58,3.92,4.75,4.46.79.13,3.53.2,8.22.2,7.3,0,11.86-2.27,13.67-6.81.44-1.07,1.16-1.42,2.15-1.06.94.21,1.3.69,1.1,1.45Z"/>
        <path class="st35" d="M710.55,1916.89c0,.65-.15,1.06-.46,1.21-.31.16-1.09.21-2.35.16-7.65-.29-13.59-.29-17.81,0-1.32.08-1.98-.38-1.98-1.37,0-.55.66-.94,1.98-1.18,2.61-.52,4.18-.95,4.7-1.29.64-.44.94-1.44.88-2.98l-1.54-33.45c-.03-.68-.23-1.02-.62-1.02-.29,0-.57.23-.84.71-5.22,9.35-8.88,15.99-10.99,19.94-4.25,7.86-7.25,13.83-9.01,17.9-.79,1.91-1.2,2.89-1.23,2.94-.29.47-.72.78-1.27.94-.29.08-.54.12-.75.12-.59,0-1.11-.77-1.58-2.31-1.85-5.9-8.21-19-19.08-39.29-.32-.6-.67-.9-1.06-.9-.47,0-.72.41-.75,1.21-.41,7.75-.89,18.08-1.45,30.98-.18,3.45,1.77,5.5,5.85,6.15,1.61.26,2.42.77,2.42,1.53,0,.65-.15,1.06-.46,1.21-.31.16-1.08.21-2.31.16-6.74-.23-11.97-.23-15.7,0-1.32.08-1.98-.38-1.98-1.37,0-.55.66-.94,1.98-1.18,2.34-.44,3.88-1.14,4.62-2.08.59-.73.91-2.05.97-3.96l1.54-34.66c.06-1.51-.28-2.68-1.01-3.49-.65-.71-1.95-1.46-3.91-2.27-1.41-.57-2.07-1.19-1.98-1.84.06-.71.69-.98,1.89-.82,4.48.57,8.41.68,11.78.31,1.29-.13,2.17-.1,2.64.08.47.18.88.64,1.23,1.37l18.38,37.48c.23.52.44.78.62.78s.44-.35.79-1.06c1.17-2.25,7.72-14.35,19.65-36.31.73-1.33,1.66-2,2.77-2,2.73,0,6.54-.35,11.43-1.06,1.11-.16,1.8-.21,2.07-.16.5.13.75.61.75,1.45,0,.63-.78,1.16-2.33,1.61-3.66,1.02-5.47,2.25-5.41,3.68l1.63,38.11c.06,1.51.48,2.58,1.28,3.21.64.55,1.83.97,3.56,1.25,1.64.29,2.46.8,2.46,1.53Z"/>
        <path class="st40" d="M782.4,1867.66c0,.89-.94,1.58-2.81,2.08-2.14.57-4.51,2.36-7.12,5.37-5.13,5.95-8.32,9.69-9.58,11.2-2.96,3.6-5.55,7.04-7.78,10.3v13.87c0,1.85.4,3.12,1.19,3.8.64.52,2.14,1.03,4.48,1.53,1.76.34,2.54.98,2.33,1.92-.12.6-.47.93-1.06.98-.06.03-.66-.01-1.8-.12-5.83-.44-11.56-.47-17.19-.08-1.76.29-2.73-.03-2.9-.94-.18-.86.34-1.42,1.54-1.68,2.4-.57,3.96-1.27,4.68-2.1.72-.82,1.08-2.29,1.08-4.41v-10.69c-3.99-6.95-10.6-15.26-19.83-24.95-2.37-2.48-4.78-3.94-7.21-4.39-1.44-.26-2.15-.64-2.15-1.14,0-1.2.63-1.74,1.89-1.61,5.31.57,11.77.34,19.39-.71,1.06-.16,1.71-.21,1.98-.16.47.13.7.57.7,1.33,0,.57-.75,1.11-2.24,1.61-2.55.86-3.83,1.79-3.83,2.78,0,.5.31,1.12.92,1.88,3.72,4.44,8.59,10.81,14.6,19.11.35.47.63.71.84.71.23,0,.53-.23.88-.71,1.29-1.72,3.5-4.54,6.62-8.46,3.12-3.92,5.44-6.91,6.97-8.97.76-.99,1.14-1.85,1.14-2.58,0-1.38-1.33-2.47-4-3.25-1.44-.44-2.1-1.06-1.98-1.84.12-.91,1.1-1.27,2.95-1.06,5.77.63,10.92.68,15.43.16,1.26-.13,1.89.27,1.89,1.21Z"/>
      </g>
    </g>
    <g>
      <g>
        <line class="st26" x1="296.54" y1="1935.88" x2="783.46" y2="1935.88"/>
        <path class="st30" d="M296.54,1935.88c156.16-2.69,315.51-2.62,471.7-.3,0,0,15.22.3,15.22.3l-15.22.3c-156.19,2.31-315.53,2.38-471.7-.3h0Z"/>
      </g>
      <g>
        <line class="st43" x1="220.56" y1="1781.65" x2="859.44" y2="1781.65"/>
        <path class="st37" d="M220.56,1781.65c204.91-2.69,413.98-2.62,618.92-.3,0,0,19.97.3,19.97.3l-19.97.3c-204.94,2.31-414,2.38-618.92-.3h0Z"/>
      </g>
    </g>
  </g>
  <path class="st2" d="M438.51,1944.17c25.47,15.36,51.03,30.19,77.14,44.28,7.51,3.97,14.97,8.15,22.83,11.29.86.34,2.1.74,2.79.83-.09-.01-.21.02-.26.04.64-.18,1.2-.43,1.89-.73,5.46-2.51,10.88-5.82,16.28-8.52,28.72-14.41,56.36-30.51,83.89-47.18-25.85,21.3-54.33,39.38-83.97,54.95-5.22,2.82-10.31,6.11-15.94,8.15-.84.27-1.87.38-2.74.24-5.33-1-10.05-3.77-14.84-6.08-30.64-16.43-60.06-35.34-87.06-57.25h0Z"/>
</svg>